<svg width="135" height="40" viewBox="0 0 135 40" fill="none" xmlns="http://www.w3.org/2000/svg">
<path fill-rule="evenodd" clip-rule="evenodd" d="M68.1402 21.7498C65.7956 21.7608 63.9028 23.6685 63.9102 26.0131C63.9175 28.3577 65.8222 30.2534 68.1668 30.2497C70.5114 30.2461 72.4101 28.3444 72.4102 25.9998C72.4266 24.8642 71.9814 23.7705 71.1764 22.9693C70.3714 22.1681 69.2757 21.728 68.1402 21.7498ZM68.1399 28.5801C67.0832 28.654 66.0886 28.0744 65.632 27.1185C65.1753 26.1626 65.3494 25.0248 66.0709 24.2491C66.7924 23.4735 67.9148 23.2177 68.9011 23.6042C69.8875 23.9906 70.5373 24.9407 70.5399 26.0001C70.5725 26.6628 70.336 27.3105 69.8841 27.7963C69.4322 28.282 68.8032 28.5647 68.1399 28.5801ZM58.8298 21.7498C56.4839 21.7553 54.5862 23.6605 54.5898 26.0064C54.5935 28.3524 56.4973 30.2516 58.8432 30.2498C61.1891 30.2479 63.0898 28.3457 63.0898 25.9998C63.1063 24.8642 62.6611 23.7705 61.8561 22.9693C61.0511 22.1681 59.9554 21.728 58.8198 21.7498H58.8298ZM58.8301 28.5803C57.7728 28.6584 56.7753 28.0817 56.3155 27.1264C55.8556 26.1712 56.0269 25.0318 56.7474 24.254C57.4679 23.4763 58.5909 23.2184 59.5785 23.604C60.5661 23.9896 61.2172 24.9401 61.2201 26.0003C61.2526 26.663 61.0161 27.3107 60.5642 27.7965C60.1123 28.2823 59.4834 28.565 58.8201 28.5803H58.8301ZM47.7401 23.0601V24.8601H52.0601C51.9924 25.7079 51.6399 26.5079 51.0601 27.1301C50.1861 28.0204 48.9766 28.4998 47.7301 28.4501C45.0791 28.4501 42.9301 26.3011 42.9301 23.6501C42.9301 20.9992 45.0791 18.8501 47.7301 18.8501C48.9479 18.8303 50.1239 19.2942 51.0001 20.1401L52.2701 18.8701C51.075 17.66 49.4408 16.9854 47.7401 17.0001C45.3191 16.9059 43.0405 18.1438 41.802 20.2262C40.5634 22.3086 40.5634 24.9017 41.802 26.9841C43.0405 29.0665 45.3191 30.3044 47.7401 30.2101C49.4719 30.2884 51.1528 29.6138 52.3501 28.3601C53.3978 27.2091 53.9571 25.6959 53.9101 24.1401C53.9133 23.7611 53.8798 23.3827 53.8101 23.0101L47.7401 23.0601ZM93.0502 24.46C92.5163 22.8892 91.0681 21.8111 89.4102 21.75C88.3045 21.7478 87.2473 22.2034 86.4896 23.0085C85.7318 23.8137 85.3411 24.8965 85.4102 26C85.3856 27.1293 85.8213 28.22 86.6172 29.0216C87.4131 29.8231 88.5007 30.2666 89.6302 30.25C91.051 30.2577 92.3808 29.5515 93.1702 28.37L91.7202 27.37C91.2799 28.1039 90.486 28.5522 89.6302 28.55C88.7438 28.5838 87.9268 28.0722 87.5702 27.26L93.2602 24.91L93.0502 24.46ZM87.2501 25.8801C87.2092 25.2552 87.4214 24.6402 87.8391 24.1737C88.2567 23.7071 88.8446 23.4283 89.4701 23.4001C90.1295 23.3566 90.7512 23.7108 91.0501 24.3001L87.2501 25.8801ZM82.6299 30H84.4999V17.5H82.6299V30ZM79.5697 22.7002H79.4997C78.9297 22.0629 78.1148 21.6991 77.2597 21.7002C74.9899 21.8103 73.2061 23.6827 73.2061 25.9552C73.2061 28.2277 74.9899 30.1001 77.2597 30.2102C78.1175 30.2246 78.9377 29.8585 79.4997 29.2102H79.5597V29.8202C79.5597 31.4502 78.6897 32.3202 77.2897 32.3202C76.336 32.2979 75.4904 31.7012 75.1497 30.8102L73.5197 31.4902C74.1474 33.017 75.639 34.0101 77.2897 34.0002C79.4797 34.0002 81.2897 32.7102 81.2897 29.5702V22.0002H79.5697V22.7002ZM77.43 28.5799C76.0929 28.4621 75.0674 27.3422 75.0674 25.9999C75.0674 24.6576 76.0929 23.5378 77.43 23.4199C78.0761 23.4531 78.6815 23.7457 79.1089 24.2314C79.5362 24.7171 79.7494 25.3548 79.7 25.9999C79.7551 26.648 79.5427 27.2904 79.112 27.7777C78.6813 28.2651 78.0699 28.5549 77.42 28.5799H77.43ZM101.81 17.5003H97.3301V30.0003H99.2001V25.2603H101.81C103.263 25.3646 104.652 24.6488 105.41 23.4052C106.168 22.1617 106.168 20.5988 105.41 19.3553C104.652 18.1118 103.263 17.3959 101.81 17.5003ZM101.81 23.5002H99.2002V19.2402H101.85C103.035 19.2402 103.995 20.2006 103.995 21.3852C103.995 22.5699 103.035 23.5302 101.85 23.5302L101.81 23.5002ZM113.34 21.7006C111.949 21.6174 110.641 22.3677 110.01 23.6106L111.67 24.3006C112.005 23.6843 112.671 23.3235 113.37 23.3806C113.85 23.3246 114.332 23.4636 114.708 23.7663C115.084 24.0691 115.323 24.5102 115.37 24.9906V25.1206C114.77 24.8026 114.1 24.6377 113.42 24.6406C111.63 24.6406 109.82 25.6406 109.82 27.4506C109.856 28.2303 110.206 28.9624 110.789 29.4804C111.373 29.9984 112.142 30.2581 112.92 30.2006C113.88 30.2695 114.8 29.8093 115.32 29.0006H115.38V30.0006H117.18V25.1906C117.18 23.0006 115.52 21.7306 113.39 21.7306L113.34 21.7006ZM113.11 28.5502C112.5 28.5502 111.65 28.2402 111.65 27.4902C111.65 26.4902 112.71 26.1602 113.65 26.1602C114.244 26.1455 114.832 26.2906 115.35 26.5802C115.221 27.6996 114.287 28.5527 113.16 28.5802L113.11 28.5502ZM123.74 22L121.6 27.42H121.54L119.32 22H117.32L120.65 29.58L118.75 33.79H120.7L125.82 22H123.74ZM106.93 30H108.8V17.5H106.93V30Z" fill="white"/>
<path fill-rule="evenodd" clip-rule="evenodd" d="M10.4402 7.53997C10.1214 7.93403 9.96415 8.43441 10.0002 8.93997V31.06C9.96973 31.5682 10.1342 32.0689 10.4602 32.46L10.5302 32.53L22.9002 20.15V19.86L10.5102 7.46997L10.4402 7.53997Z" fill="url(#paint0_linear)"/>
<path fill-rule="evenodd" clip-rule="evenodd" d="M27.0004 24.28L22.9004 20.15V19.86L27.0004 15.72L27.0904 15.77L32.0004 18.56C33.4004 19.35 33.4004 20.65 32.0004 21.45L27.1104 24.23L27.0004 24.28Z" fill="url(#paint1_linear)"/>
<path fill-rule="evenodd" clip-rule="evenodd" d="M27.1204 24.22L22.9004 20L10.4404 32.46C11.0291 32.9775 11.9029 33.0027 12.5204 32.52L27.1304 24.22" fill="url(#paint2_linear)"/>
<path fill-rule="evenodd" clip-rule="evenodd" d="M27.1197 15.7801L12.5097 7.48005C11.8921 6.99733 11.0184 7.02253 10.4297 7.54005L22.8997 20.0001L27.1197 15.7801Z" fill="url(#paint3_linear)"/>
<path opacity="0.2" fill-rule="evenodd" clip-rule="evenodd" d="M27.0004 24.1299L12.5104 32.3799C11.9175 32.8232 11.1034 32.8232 10.5104 32.3799L10.4404 32.4499L10.5104 32.5199C11.1023 32.9666 11.9186 32.9666 12.5104 32.5199L27.1204 24.2199L27.0004 24.1299Z" fill="black"/>
<path opacity="0.12" fill-rule="evenodd" clip-rule="evenodd" d="M10.4401 32.3199C10.1142 31.9288 9.9497 31.4281 9.98014 30.9199V31.0699C9.9497 31.5781 10.1142 32.0788 10.4401 32.4699L10.5101 32.3999L10.4401 32.3199Z" fill="black"/>
<path opacity="0.12" fill-rule="evenodd" clip-rule="evenodd" d="M32 21.3L27 24.13L27.09 24.22L32 21.44C32.5671 21.1736 32.9485 20.6244 33 20C32.886 20.5648 32.5167 21.045 32 21.3Z" fill="black"/>
<path opacity="0.25" fill-rule="evenodd" clip-rule="evenodd" d="M12.51 7.61998L32 18.7C32.5167 18.955 32.886 19.4351 33 20C32.9485 19.3756 32.5671 18.8264 32 18.56L12.51 7.47998C11.12 6.67998 10 7.33998 10 8.93998V9.08998C10 7.48998 11.12 6.82998 12.51 7.61998Z" fill="black"/>
<path fill-rule="evenodd" clip-rule="evenodd" d="M46.7297 13.17C46.177 13.3904 45.5843 13.4926 44.9897 13.47C44.0645 13.5482 43.1513 13.218 42.4899 12.5663C41.8286 11.9145 41.4851 11.0063 41.5497 10.08C41.4993 9.11417 41.8638 8.17279 42.5514 7.49275C43.2391 6.81271 44.1845 6.45876 45.1497 6.51999C45.7117 6.49965 46.2713 6.60203 46.7897 6.81999L46.5197 7.81999C46.1025 7.64277 45.653 7.55423 45.1997 7.55999C44.5487 7.52236 43.9137 7.77025 43.4603 8.23895C43.007 8.70765 42.7804 9.35063 42.8397 9.99999C42.7733 10.6484 42.9965 11.293 43.4496 11.7615C43.9027 12.23 44.5395 12.4747 45.1897 12.43C45.6486 12.4369 46.1042 12.3519 46.5297 12.18L46.7297 13.17Z" fill="white"/>
<path fill-rule="evenodd" clip-rule="evenodd" d="M49.2896 8.5V10.5H49.4696L50.9696 8.5H52.4296L50.4896 10.64C51.1596 10.74 51.5696 11.27 51.8996 12.05C52.0496 12.41 52.2296 12.95 52.4496 13.37H51.1696C50.9945 13.0485 50.8441 12.7142 50.7196 12.37C50.5869 11.7777 50.0565 11.3601 49.4496 11.37H49.2896V13.37H48.0596V8.5H49.2896Z" fill="white"/>
<path fill-rule="evenodd" clip-rule="evenodd" d="M56.3405 13.3696L56.2605 12.8296C55.9054 13.2553 55.3747 13.4949 54.8205 13.4796C54.4112 13.514 54.0067 13.372 53.7087 13.0893C53.4107 12.8066 53.2476 12.4101 53.2605 11.9996C53.2605 10.7696 54.3505 10.1496 56.1505 10.1596V10.0796C56.1505 9.75956 56.0205 9.22956 55.1505 9.22956C54.6895 9.23037 54.2371 9.35468 53.8405 9.58956L53.6005 8.78956C54.1394 8.49468 54.7463 8.3464 55.3605 8.35956C55.9065 8.30226 56.4491 8.49449 56.8373 8.88269C57.2255 9.27088 57.4178 9.81356 57.3605 10.3596V12.1996C57.3546 12.5908 57.378 12.9819 57.4305 13.3696H56.3405ZM56.1807 11C55.3107 11 54.4807 11.17 54.4807 11.91C54.4618 12.1008 54.5294 12.2901 54.665 12.4257C54.8006 12.5613 54.9898 12.6289 55.1807 12.61C55.6261 12.6348 56.0341 12.3614 56.1807 11.94C56.1941 11.8505 56.1941 11.7595 56.1807 11.67V11Z" fill="white"/>
<path fill-rule="evenodd" clip-rule="evenodd" d="M60.0602 8.5V10C60.0602 10.58 60.2702 10.92 60.9102 10.92C61.2078 10.9161 61.4973 10.822 61.7402 10.65V8.5H63.0002V13.37H61.7402V11.5C61.3535 11.7202 60.9153 11.8341 60.4702 11.83C60.0188 11.877 59.5707 11.7143 59.2546 11.3885C58.9386 11.0627 58.7895 10.6098 58.8502 10.16V8.5H60.0602Z" fill="white"/>
<path fill-rule="evenodd" clip-rule="evenodd" d="M67.4596 13.3698L67.3796 12.8298C67.0245 13.2556 66.4938 13.4951 65.9396 13.4798C65.5303 13.5143 65.1258 13.3723 64.8278 13.0896C64.5298 12.8069 64.3668 12.4104 64.3796 11.9998C64.3796 10.7698 65.4696 10.1498 67.2696 10.1598V10.0798C67.2696 9.75983 67.1396 9.22983 66.2696 9.22983C65.8194 9.24628 65.3814 9.38077 64.9996 9.61983L64.7596 8.81983C65.2984 8.52451 65.9054 8.37621 66.5196 8.38983C67.0656 8.33254 67.6083 8.52476 67.9965 8.91296C68.3847 9.30116 68.5769 9.84384 68.5196 10.3898V12.1998C68.5136 12.591 68.537 12.9821 68.5896 13.3698H67.4596ZM67.2997 11C66.4297 11 65.5997 11.17 65.5997 11.91C65.5845 12.0999 65.6533 12.287 65.788 12.4217C65.9228 12.5564 66.1098 12.6253 66.2997 12.61C66.7452 12.6348 67.1532 12.3614 67.2997 11.94C67.3136 11.8505 67.3136 11.7595 67.2997 11.67V11Z" fill="white"/>
<path fill-rule="evenodd" clip-rule="evenodd" d="M73.8004 8.5V9.45H72.3404V13.37H71.1104V9.45H69.6504V8.5H73.8004Z" fill="white"/>
<path fill-rule="evenodd" clip-rule="evenodd" d="M76.2402 8.5V10C76.4931 9.97894 76.7473 9.97894 77.0002 10C78.1202 10 79.3002 10.38 79.3002 11.67C79.3206 12.1522 79.0946 12.6117 78.7002 12.89C78.0294 13.2942 77.252 13.4859 76.4702 13.44C75.9502 13.44 75.4702 13.44 74.9902 13.37V8.5H76.2402ZM76.2402 12.5002C76.43 12.5135 76.6205 12.5135 76.8102 12.5002C77.3802 12.5002 78.1002 12.3102 78.1002 11.6202C78.1002 10.9302 77.3402 10.7502 76.7902 10.7502C76.6073 10.7337 76.4232 10.7337 76.2402 10.7502V12.5002Z" fill="white"/>
<path fill-rule="evenodd" clip-rule="evenodd" d="M84.3399 8.5V10.25C84.3399 11.02 84.3399 11.54 84.2699 12.25C84.5299 11.68 84.6799 11.32 84.9299 10.81L86.1299 8.53H87.6199V13.4H86.4799V11.63C86.4799 10.85 86.4799 10.49 86.5599 9.57C86.3199 10.15 86.1599 10.5 85.9199 10.97C85.5399 11.69 85.0999 12.57 84.6799 13.37H83.1699V8.5H84.3399Z" fill="white"/>
<path fill-rule="evenodd" clip-rule="evenodd" d="M89.81 10.4701H90.4C91.07 10.4701 91.46 10.2001 91.46 9.85006C91.46 9.50006 91.13 9.26006 90.58 9.26006C90.1561 9.26868 89.7421 9.38945 89.38 9.61006L89.12 8.88006C89.6713 8.5564 90.3008 8.39036 90.94 8.40006C91.76 8.40006 92.76 8.72006 92.76 9.69006C92.7075 10.2632 92.2615 10.7217 91.69 10.7901C92.382 10.7728 92.9624 11.3089 93 12.0001C93 13.1301 91.73 13.4801 90.73 13.4801C90.1219 13.4696 89.5265 13.3044 89 13.0001L89.28 12.2201C89.699 12.4315 90.1607 12.5443 90.63 12.5501C91.31 12.5501 91.63 12.2701 91.63 11.8901C91.63 11.5101 91.1 11.2201 90.41 11.2201H89.81V10.4701Z" fill="white"/>
<defs>
<linearGradient id="paint0_linear" x1="17.4796" y1="-7.58235" x2="-2.35537" y2="-2.3223" gradientUnits="userSpaceOnUse">
<stop stop-color="#00A0FF"/>
<stop offset="0.01" stop-color="#00A1FF"/>
<stop offset="0.26" stop-color="#00BEFF"/>
<stop offset="0.51" stop-color="#00D2FF"/>
<stop offset="0.76" stop-color="#00DFFF"/>
<stop offset="1" stop-color="#00E3FF"/>
</linearGradient>
<linearGradient id="paint1_linear" x1="33.8304" y1="9.79966" x2="9.64039" y2="9.79966" gradientUnits="userSpaceOnUse">
<stop stop-color="#FFE000"/>
<stop offset="0.41" stop-color="#FFBD00"/>
<stop offset="0.78" stop-color="#FFA500"/>
<stop offset="1" stop-color="#FF9C00"/>
</linearGradient>
<linearGradient id="paint2_linear" x1="10.0743" y1="13.5275" x2="-5.86212" y2="40.3341" gradientUnits="userSpaceOnUse">
<stop stop-color="#FF3A44"/>
<stop offset="1" stop-color="#C31162"/>
</linearGradient>
<linearGradient id="paint3_linear" x1="0.709706" y1="4.09606" x2="7.82299" y2="16.0665" gradientUnits="userSpaceOnUse">
<stop stop-color="#32A071"/>
<stop offset="0.07" stop-color="#2DA771"/>
<stop offset="0.48" stop-color="#15CF74"/>
<stop offset="0.8" stop-color="#06E775"/>
<stop offset="1" stop-color="#00F076"/>
</linearGradient>
</defs>
</svg>
