<svg width="24" height="24" viewBox="0 0 24 24" fill="none" xmlns="http://www.w3.org/2000/svg">
<path fill-rule="evenodd" clip-rule="evenodd" d="M3 6H21C21.5523 6 22 6.44771 22 7V9C22 9.55228 21.5523 10 21 10H3C2.44772 10 2 9.55229 2 9V7C2 6.44772 2.44772 6 3 6ZM2 10.7324C1.4022 10.3866 1 9.74028 1 9V7C1 5.89543 1.89543 5 3 5H21C22.1046 5 23 5.89543 23 7V9C23 9.74028 22.5978 10.3866 22 10.7324V11V18C22 19.1046 21.1046 20 20 20H4C2.89543 20 2 19.1046 2 18V11V10.7324ZM3 11L3 18C3 18.5523 3.44772 19 4 19H20C20.5523 19 21 18.5523 21 18V11H3Z" fill="#4CAB20"/>
<path fill-rule="evenodd" clip-rule="evenodd" d="M10.484 2.3628C9.40704 1.30135 8.34409 1.16369 7.77774 1.44688C7.58045 1.54553 7.40807 1.83037 7.55093 2.3927C7.68838 2.93374 8.10816 3.58624 8.83742 4.08768C9.25179 4.3726 9.8395 4.57399 10.4654 4.71915C10.8335 4.80453 11.1956 4.86647 11.521 4.91629C11.5222 4.89949 11.5235 4.8825 11.5249 4.86532C11.4547 4.12469 11.2228 3.09095 10.484 2.3628ZM12.0271 2.86001C11.8297 2.43543 11.5584 2.01766 11.186 1.65058C9.95437 0.436722 8.43892 -0.00177795 7.33051 0.552458C6.5278 0.953832 6.38311 1.85718 6.58172 2.63893C6.78573 3.44198 7.36594 4.28948 8.27083 4.91168C8.84121 5.30387 9.5755 5.5393 10.2394 5.69329C10.6889 5.79754 11.1317 5.86972 11.5002 5.92452V19.9997H11.5541H12.5002H12.5541V5.92452C12.9226 5.86972 13.3654 5.79754 13.8149 5.69329C14.4788 5.5393 15.2131 5.30387 15.7835 4.91168C16.6883 4.28948 17.2686 3.44198 17.4726 2.63893C17.6712 1.85718 17.5265 0.953832 16.7238 0.552458C15.6154 -0.00177795 14.0999 0.436722 12.8683 1.65058C12.4959 2.01766 12.2246 2.43543 12.0271 2.86001ZM12.5333 4.91628C12.5321 4.89949 12.5307 4.8825 12.5293 4.86532C12.5996 4.12468 12.8315 3.09095 13.5703 2.3628C14.6472 1.30135 15.7102 1.16369 16.2766 1.44688C16.4738 1.54553 16.6462 1.83037 16.5034 2.3927C16.3659 2.93374 15.9461 3.58624 15.2169 4.08768C14.8025 4.3726 14.2148 4.57399 13.5889 4.71915C13.2208 4.80453 12.8587 4.86646 12.5333 4.91628Z" fill="#FFA200"/>
</svg>
