<svg width="72" height="72" viewBox="0 0 72 72" fill="none" xmlns="http://www.w3.org/2000/svg">
<path fill-rule="evenodd" clip-rule="evenodd" d="M69.2627 32.9099C69.9675 31.6615 70.5027 30.3248 70.8542 28.9349C71.0875 28.0885 71.1902 27.2114 71.1587 26.3339C71.1261 26.3544 71.0933 26.3759 71.0597 26.398C70.9898 26.444 70.9163 26.4923 70.8332 26.5379C69.1949 27.4757 67.9093 28.9247 67.1732 30.6629C66.6449 31.9822 66.3334 33.3782 66.2507 34.7969C66.1293 34.9992 66.0075 35.2021 65.8847 35.3984C66.2426 33.1296 66.3653 30.8299 66.2507 28.5359C66.2903 28.5181 66.3244 28.4898 66.3492 28.4542C66.374 28.4185 66.3887 28.3768 66.3917 28.3334C66.4006 28.2972 66.4459 28.1589 66.4955 28.0079C66.5547 27.8277 66.6199 27.6292 66.6362 27.5639C67.22 27.3233 67.7394 26.9494 68.153 26.4723C68.5665 25.9952 68.8628 25.4279 69.0182 24.8159C69.4427 23.4689 69.6887 22.0724 69.7502 20.6624C69.8057 19.8059 69.7202 18.9449 69.4952 18.1154C69.4037 18.2009 69.3122 18.2909 69.2222 18.3809C68.1277 19.4308 67.3117 20.7365 66.8477 22.1804C66.2586 23.8301 66.1188 25.6069 66.4427 27.3284C66.4096 27.4368 66.3701 27.5566 66.3292 27.6805C66.2961 27.7813 66.262 27.8847 66.2297 27.9869C66.0767 25.5794 65.6612 23.1959 64.9937 20.8784C65.024 20.8496 65.0477 20.8146 65.0632 20.7757C65.0787 20.7369 65.0857 20.6952 65.0837 20.6534C65.1152 20.5469 65.2262 20.0354 65.2457 19.8854C66.2912 19.5254 66.9392 17.9609 67.0832 16.7864C67.2182 16.0169 67.2392 15.2309 67.1432 14.4539C67.0337 13.0649 66.6182 11.7164 65.9252 10.5059C65.9119 10.5265 65.8987 10.5469 65.8854 10.5673C65.8281 10.6555 65.7714 10.7427 65.7227 10.8329C65.0207 12.1184 64.5662 13.5254 64.3847 14.9789C64.1286 16.6418 64.3648 18.3432 65.0642 19.8734C65.0292 20.0483 64.9942 20.2062 64.9593 20.3641C64.9432 20.4365 64.9272 20.5089 64.9112 20.5829C64.3403 18.6642 63.6004 16.7999 62.7002 15.0119C62.6912 14.9819 62.6807 14.9699 62.6702 14.9894C62.6852 14.9654 62.6852 14.9354 62.6702 14.9114C62.5785 14.7292 62.4757 14.5649 62.3741 14.4024C62.341 14.3496 62.3081 14.2969 62.2757 14.2439C62.7602 13.2734 62.7182 12.1229 62.1632 11.1884C61.5571 9.94993 60.62 9.18047 59.632 8.36924C59.3288 8.12031 59.0208 7.86746 58.7162 7.59591C58.6652 7.53741 58.6112 7.48341 58.5527 7.43091C58.5332 7.48641 58.5227 7.54641 58.5227 7.60641C58.4025 8.84528 58.5799 10.0949 59.0402 11.2514C59.2178 11.7166 59.4602 12.1544 59.7602 12.5519C60.3444 13.3807 61.1691 14.0101 62.1227 14.3549C62.178 14.459 62.2305 14.547 62.2829 14.635C62.337 14.7259 62.391 14.8167 62.4482 14.9249C62.458 14.9392 62.4662 14.9515 62.4734 14.9622C62.5096 15.0164 62.5165 15.0269 62.5592 15.0269C62.5431 15.0301 62.5357 15.0265 62.5322 15.0288C62.5292 15.0308 62.5292 15.0374 62.5292 15.0569C62.8427 15.6569 63.1277 16.2794 63.4007 16.9094C63.4348 16.9877 63.4657 17.066 63.4968 17.1446C63.5216 17.2075 63.5465 17.2705 63.5732 17.3339C63.8391 17.9659 64.0793 18.6084 64.2932 19.2599L64.26 19.2441C64.0871 19.162 63.9078 19.0768 63.7457 18.9824C63.7442 17.8004 63.0827 16.7189 62.0327 16.1789C60.7817 15.6134 59.4512 15.2489 58.0877 15.0989C58.0112 15.0899 57.9362 15.0704 57.8642 15.0449C57.8684 15.0979 57.8822 15.1497 57.9047 15.1979C58.2151 16.2404 58.7958 17.1822 59.5877 17.9279C60.1232 18.4184 60.7547 18.7904 61.4432 19.0184C62.1523 19.2759 62.9219 19.3166 63.6542 19.1354C63.8539 19.3155 64.0994 19.4369 64.3637 19.4864C64.9912 21.4796 65.4223 23.5293 65.6507 25.6064C65.5909 25.5567 65.5266 25.508 65.462 25.4592C65.3533 25.377 65.2442 25.2944 65.1557 25.2059C65.3987 24.2354 65.1347 23.2079 64.4552 22.4729C63.5585 21.4827 62.3546 20.9756 61.1686 20.476C60.8131 20.3262 60.4592 20.1771 60.1157 20.0159L59.9027 19.9139C59.9143 19.9656 59.9209 20.0184 59.9222 20.0714C60.1228 21.2218 60.5767 22.3131 61.2512 23.2664C61.7043 23.8779 62.2724 24.395 62.9237 24.7889C63.5625 25.1716 64.2991 25.3593 65.0432 25.3289C65.2122 25.5507 65.4311 25.7296 65.6822 25.8509C65.9537 28.3289 65.9702 30.8264 65.7332 33.3089C65.682 33.2363 65.6272 33.1653 65.5725 33.0945C65.4973 32.9972 65.4225 32.9003 65.3582 32.8004C65.8307 31.8074 65.8337 30.6539 65.3687 29.6579C64.7105 28.309 63.6162 27.3702 62.5356 26.443C62.2175 26.17 61.9005 25.898 61.5962 25.6169C61.5706 25.5932 61.5468 25.5678 61.5226 25.5422C61.4888 25.5062 61.4543 25.4695 61.4132 25.4354C61.4011 25.4972 61.3941 25.5599 61.3922 25.6229C61.2943 26.9245 61.4706 28.2322 61.9097 29.4614C62.2124 30.2573 62.6555 30.9924 63.2177 31.6319C63.7454 32.241 64.44 32.6822 65.2157 32.9009C65.3356 33.1682 65.4966 33.4152 65.6927 33.6329C65.4565 35.9328 64.9943 38.2037 64.3127 40.4129C64.2103 40.7561 64.09 41.0879 63.9683 41.4235C63.9581 41.4516 63.9479 41.4797 63.9377 41.5079C63.8462 41.2964 63.7682 41.0804 63.7052 40.8584C64.3772 39.8369 64.6292 38.5949 64.4042 37.3934C64.1098 35.7907 63.3604 34.6062 62.575 33.3649C62.332 32.9808 62.0856 32.5914 61.8482 32.1824L61.7282 31.9274C61.6973 31.986 61.6731 32.0479 61.6562 32.1119C61.2152 33.4379 61.0487 34.8404 61.1702 36.2324C61.2617 37.1608 61.5049 38.0678 61.8902 38.9174C62.2516 39.716 62.8183 40.4044 63.5327 40.9124C63.5798 41.2367 63.679 41.5513 63.8267 41.8439C62.9478 44.315 61.7909 46.6782 60.3782 48.8879C60.3749 48.7936 60.3699 48.6989 60.365 48.6046C60.3566 48.4423 60.3482 48.2809 60.3482 48.1244C60.9977 47.8424 61.6262 46.6199 61.7282 45.1409C61.7729 43.5048 61.283 41.9744 60.7959 40.4524C60.6291 39.9316 60.4627 39.4117 60.3182 38.8889C60.3023 38.8374 60.289 38.7875 60.2755 38.7371C60.2635 38.6921 60.2513 38.6468 60.2372 38.5994C60.2152 38.6261 60.1994 38.6548 60.1835 38.6836C60.169 38.7099 60.1545 38.7364 60.1352 38.7614C59.4541 39.9844 59.0137 41.3266 58.8377 42.7154C58.7459 43.6838 58.7903 44.6603 58.9697 45.6164C59.1405 46.5291 59.5267 47.3879 60.0962 48.1214C60.0826 48.4832 60.1129 48.8453 60.1862 49.1999C58.7099 51.4708 56.944 53.5397 54.9332 55.3544L54.9338 55.3508C54.9741 55.1254 55.016 54.8913 55.0757 54.6794C55.5701 54.4307 56.0092 54.0845 56.3665 53.6618C56.7238 53.2391 56.9919 52.7484 57.1547 52.2194C57.6922 50.52 57.6332 48.7461 57.5737 46.9567C57.5592 46.5191 57.5446 46.0805 57.5387 45.6419C57.5492 45.5414 57.5522 45.4394 57.5492 45.3389C57.5078 45.3785 57.4637 45.415 57.4172 45.4484C56.4362 46.4332 55.6612 47.6035 55.1372 48.8909C54.7742 49.8119 54.5522 50.7824 54.4772 51.7709C54.3882 52.7253 54.5058 53.6876 54.8222 54.5924C54.736 54.8995 54.6748 55.213 54.6392 55.5299C54.6306 55.556 54.627 55.5835 54.6287 55.6109C52.8234 57.1897 50.8064 58.5084 48.6362 59.5289C48.7127 59.3159 48.8042 59.1089 48.9107 58.9094C49.4449 58.8269 49.9553 58.6315 50.408 58.3361C50.8606 58.0407 51.2451 57.6522 51.5357 57.1964C52.4234 55.7545 52.7999 54.0848 53.1838 52.3819C53.2956 51.8865 53.4079 51.3882 53.5337 50.8919C53.5469 50.8324 53.5678 50.77 53.589 50.7068C53.6015 50.6696 53.6141 50.6321 53.6252 50.5949C53.5973 50.6088 53.5663 50.6214 53.5355 50.6339C53.5101 50.6443 53.4848 50.6545 53.4617 50.6654C52.2855 51.3035 51.2619 52.1894 50.4617 53.2619C49.8812 54.0524 49.4237 54.9269 49.1012 55.8524C48.7698 56.7744 48.6319 57.7548 48.6962 58.7324C48.5566 59.043 48.4315 59.3598 48.3212 59.6819C46.1122 60.6849 43.7432 61.2892 41.3237 61.4669C41.4248 61.3016 41.5402 61.1455 41.6687 61.0004C42.2057 61.3499 43.4837 60.9794 44.5082 60.2519C45.6773 59.2281 46.4272 57.855 47.2042 56.4325C47.438 56.0044 47.6743 55.5718 47.9252 55.1429C47.9713 55.0565 48.0224 54.9729 48.0782 54.8924H47.9162C46.7197 55.0394 45.5775 55.4772 44.5892 56.1674C43.8345 56.7067 43.1762 57.3695 42.6422 58.1279C42.0992 58.9244 41.7197 59.8199 41.5277 60.7649C41.3552 60.9899 41.1962 61.2239 41.0507 61.4669C41.04 61.4737 41.0324 61.4845 41.0297 61.4969C41.0097 61.4977 40.9922 61.4999 40.9761 61.5019C40.9595 61.504 40.9444 61.5059 40.9292 61.5059C39.2387 61.6034 37.5407 61.4894 35.8787 61.1669C35.7616 61.2453 35.6632 61.3471 35.5893 61.4651C35.5155 61.3478 35.4176 61.2465 35.3012 61.1684C33.6347 61.4894 31.9352 61.6034 30.2402 61.5059C30.2235 61.5059 30.2068 61.5036 30.1902 61.5013C30.1768 61.4994 30.1635 61.4976 30.1502 61.4969C30.1402 61.4893 30.1329 61.4788 30.1292 61.4669C30.054 61.3609 29.9761 61.2417 29.9041 61.1315C29.7908 60.9581 29.6921 60.8071 29.6417 60.7649C29.4519 59.8212 29.0761 58.9248 28.5362 58.1279C27.9966 57.3741 27.3392 56.7121 26.5892 56.1674C25.5967 55.4787 24.452 55.0412 23.2532 54.8924H23.0912C23.1497 54.9734 23.2037 55.0574 23.2532 55.1429C23.4953 55.5604 23.7241 55.9813 23.9506 56.3983C24.73 57.8329 25.4835 59.2198 26.6702 60.2519C27.6842 60.9794 28.9622 61.3499 29.4992 61.0004C29.6312 61.1429 29.7467 61.3004 29.8442 61.4669C27.4278 61.2904 25.0621 60.686 22.8572 59.6819C22.8464 59.6625 22.8398 59.641 22.8377 59.6189C22.7294 59.3184 22.6072 59.0231 22.4717 58.7339C22.5396 57.757 22.4053 56.7766 22.0772 55.8539C21.7472 54.9308 21.2898 54.0583 20.7182 53.2619C19.9176 52.1892 18.8934 51.3033 17.7167 50.6654C17.6944 50.6549 17.6701 50.645 17.6457 50.6351C17.6143 50.6222 17.5826 50.6093 17.5547 50.5949C17.5652 50.6302 17.577 50.6656 17.5888 50.7008C17.6105 50.7661 17.632 50.8306 17.6447 50.8919C17.7631 51.3684 17.8698 51.8466 17.9759 52.3225C18.3603 54.0459 18.7376 55.7377 19.6427 57.1964C19.9305 57.6527 20.3131 58.0418 20.7644 58.3373C21.2158 58.6329 21.7254 58.828 22.2587 58.9094C22.3447 59.0642 22.4123 59.2225 22.4802 59.3816C22.5011 59.4306 22.5221 59.4798 22.5437 59.5289C20.3715 58.511 18.3537 57.192 16.5497 55.6109C16.5097 55.2668 16.4456 54.926 16.3577 54.5909C16.6689 53.6854 16.7864 52.7247 16.7027 51.7709C16.5243 49.3735 15.4742 47.1244 13.7507 45.4484C13.7347 45.436 13.7187 45.4217 13.7021 45.4068C13.6766 45.384 13.6495 45.3598 13.6187 45.3389C13.6202 45.4394 13.6277 45.5414 13.6397 45.6419C13.6322 46.0543 13.6178 46.4666 13.6033 46.8781C13.5397 48.6941 13.4766 50.4951 14.0147 52.2194C14.1808 52.7468 14.4502 53.2359 14.8071 53.6582C15.164 54.0806 15.6013 54.4277 16.0937 54.6794C16.1552 54.9029 16.2062 55.1279 16.2452 55.3544C14.2288 53.5426 12.4596 51.4734 10.9832 49.1999C11.0612 48.8459 11.0927 48.4844 11.0732 48.1214C11.6477 47.3909 12.0332 46.5314 12.1997 45.6164C12.384 44.6609 12.4285 43.6837 12.3317 42.7154C12.1647 41.3244 11.7231 39.9804 11.0327 38.7614C11.0028 38.7052 10.9693 38.6511 10.9322 38.5994C10.9038 38.6947 10.8803 38.7913 10.8617 38.8889C10.7165 39.4126 10.5489 39.9333 10.381 40.455C9.89145 41.9761 9.39918 43.5057 9.45168 45.1409C9.54168 46.6199 10.1822 47.8424 10.8317 48.1244L10.8302 48.1583C10.8202 48.3955 10.8097 48.6431 10.7897 48.8879C9.37642 46.68 8.22278 44.3164 7.35168 41.8439C7.49568 41.5499 7.59468 41.2349 7.64568 40.9124C8.36007 40.4068 8.92449 39.7175 9.27918 38.9174C9.66468 38.0684 9.90768 37.1609 9.99918 36.2324C10.119 34.8408 9.95675 33.4393 9.52218 32.1119C9.51054 32.0698 9.49463 32.0326 9.47954 31.9972C9.46935 31.9734 9.45954 31.9504 9.45168 31.9274C9.40068 32.0159 9.36018 32.0969 9.31968 32.1824C9.0766 32.6055 8.82268 33.0077 8.57211 33.4046C7.79753 34.6316 7.05495 35.8078 6.76368 37.3934C6.54539 38.5955 6.79608 39.8355 7.46418 40.8584C7.40418 41.0819 7.32768 41.2994 7.23018 41.5079C7.18045 41.3569 7.12685 41.2068 7.07313 41.0565C6.99722 40.844 6.92106 40.6307 6.85518 40.4129C6.17358 38.2037 5.71134 35.9328 5.47518 33.6329C5.67918 33.4184 5.84268 33.1709 5.96268 32.9009C6.73727 32.6798 7.43123 32.239 7.96068 31.6319C8.52018 30.9914 8.95968 30.2564 9.25818 29.4614C9.69618 28.2314 9.87468 26.9264 9.78618 25.6229C9.77423 25.5611 9.76721 25.4984 9.76518 25.4354C9.72072 25.4723 9.68044 25.5122 9.64133 25.5509C9.61841 25.5736 9.5959 25.5958 9.57318 25.6169C9.27045 25.8966 8.95522 26.1671 8.63888 26.4387C7.55703 27.3673 6.46229 28.3069 5.81118 29.6579C5.58237 30.1501 5.46383 30.6864 5.46383 31.2292C5.46383 31.7719 5.58237 32.3082 5.81118 32.8004C5.74504 32.9123 5.6625 33.0203 5.57911 33.1295C5.53389 33.1887 5.48842 33.2483 5.44518 33.3089C5.20518 30.8279 5.22018 28.3289 5.49618 25.8509C5.74368 25.7234 5.96118 25.5464 6.13518 25.3289C6.87618 25.3589 7.60968 25.1699 8.24418 24.7889C8.89595 24.3952 9.46458 23.878 9.91818 23.2664C10.5932 22.3139 11.0462 21.2219 11.2457 20.0714C11.2576 20.0197 11.2646 19.9669 11.2667 19.9139C11.2382 19.9296 11.2071 19.9445 11.1747 19.9601C11.1387 19.9774 11.1012 19.9954 11.0642 20.0159C10.7196 20.1775 10.3642 20.3268 10.0071 20.4769C8.81909 20.9762 7.6124 21.4833 6.72318 22.4729C6.38947 22.8351 6.15015 23.2739 6.02641 23.7506C5.90266 24.2273 5.89828 24.7271 6.01368 25.2059C5.8563 25.3492 5.6905 25.4829 5.51718 25.6064C5.75568 23.5304 6.18618 21.4814 6.80418 19.4864C7.07168 19.4372 7.32064 19.3158 7.52418 19.1354C8.25318 19.3154 9.01968 19.2764 9.72468 19.0184C10.4177 18.7934 11.0537 18.4199 11.5907 17.9279C12.3797 17.1796 12.9603 16.2388 13.2752 15.1979C13.28 15.1689 13.2883 15.1421 13.2966 15.1153C13.3037 15.0923 13.3108 15.0692 13.3157 15.0449C13.2422 15.0687 13.167 15.0868 13.0907 15.0989C11.7237 15.2466 10.3889 15.6112 9.13668 16.1789C8.62234 16.4452 8.19077 16.8473 7.88879 17.3415C7.58681 17.8357 7.42595 18.4032 7.42368 18.9824C7.24968 19.0844 7.06968 19.1774 6.88518 19.2599C7.09818 18.6044 7.34268 17.9654 7.59618 17.3339L7.77768 16.9094C8.04168 16.2794 8.32518 15.6569 8.64018 15.0569C8.64487 15.0382 8.64746 15.0314 8.64529 15.0291C8.6426 15.0262 8.63259 15.0302 8.61018 15.0269C8.65281 15.0269 8.65981 15.0164 8.69601 14.9622C8.70311 14.9515 8.71134 14.9392 8.72118 14.9249C8.78855 14.7956 8.8526 14.6912 8.91971 14.5818C8.96317 14.511 9.00792 14.438 9.05568 14.3549C10.0079 14.0075 10.8318 13.3787 11.4182 12.5519C11.7106 12.1496 11.9525 11.7128 12.1382 11.2514C12.5935 10.0936 12.7708 8.84516 12.6557 7.60641L12.6257 7.43091C12.5928 7.46047 12.5627 7.49003 12.532 7.52008C12.5067 7.54493 12.481 7.57011 12.4532 7.59591C12.1515 7.86484 11.8469 8.11545 11.5472 8.36205C10.5581 9.17593 9.62185 9.94628 9.01518 11.1884C8.7401 11.6469 8.58565 12.1676 8.56624 12.7019C8.54683 13.2362 8.66309 13.7667 8.90418 14.2439C8.7594 14.4586 8.62718 14.6814 8.50818 14.9114C8.50225 14.916 8.49746 14.922 8.49417 14.9287C8.49087 14.9355 8.48916 14.9429 8.48916 14.9504C8.48916 14.9579 8.49087 14.9653 8.49417 14.9721C8.49746 14.9789 8.50225 14.9848 8.50818 14.9894H8.49768C8.48868 14.9699 8.47818 14.9819 8.46768 15.0119C7.57086 16.8002 6.83447 18.6645 6.26718 20.5829C6.25109 20.5086 6.23412 20.436 6.21714 20.3634C6.18028 20.2057 6.14341 20.048 6.11568 19.8734C6.80659 18.3407 7.03894 16.6408 6.78468 14.9789C6.60501 13.5259 6.15421 12.1196 5.45568 10.8329C5.39233 10.7191 5.32116 10.6098 5.24268 10.5059C4.55404 11.7167 4.14218 13.065 4.03668 14.4539C3.9422 15.2299 3.95937 16.0153 4.08768 16.7864C4.22868 17.9609 4.88868 19.5254 5.93268 19.8854C5.95218 20.0354 6.05418 20.5469 6.08418 20.6534C6.08418 20.7389 6.12168 20.8214 6.18618 20.8784C5.51745 23.1961 5.10251 25.5796 4.94868 27.9869C4.88196 27.7991 4.82237 27.6073 4.76906 27.4356C4.75765 27.3989 4.74652 27.3631 4.73568 27.3284C5.06097 25.6062 4.91746 23.8282 4.32018 22.1804C3.85945 20.7378 3.04765 19.4322 1.95768 18.3809C1.89794 18.3221 1.83372 18.2634 1.77088 18.2059C1.73746 18.1753 1.70444 18.1451 1.67268 18.1154C1.45124 18.9451 1.36913 19.8058 1.42968 20.6624C1.48518 22.0724 1.73118 23.4704 2.16018 24.8159C2.31567 25.4281 2.61219 25.9954 3.02604 26.4726C3.4399 26.9497 3.95962 27.3234 4.54368 27.5639C4.55994 27.6289 4.62113 27.8262 4.67689 28.0058C4.72401 28.1577 4.76724 28.297 4.77618 28.3334C4.79118 28.4189 4.84368 28.4924 4.91868 28.5359C4.80768 30.8309 4.93368 33.1304 5.29368 35.3984C5.26415 35.3507 5.23401 35.3026 5.2037 35.2542C5.10927 35.1035 5.01321 34.9502 4.92918 34.7969C4.84793 33.3769 4.53269 31.9801 3.99618 30.6629C3.26356 28.9253 1.98093 27.4762 0.345176 26.5379C0.280605 26.502 0.221541 26.4645 0.163707 26.4277C0.112718 26.3952 0.0626852 26.3634 0.0106763 26.3339C-0.0158279 27.2111 0.0867688 28.0875 0.315176 28.9349C0.675176 30.3224 1.21068 31.6574 1.90668 32.9099C2.16792 33.4641 2.56358 33.9442 3.05766 34.3065C3.55175 34.6688 4.12858 34.9019 4.73568 34.9844C4.76714 35.0547 4.90646 35.2723 5.01812 35.4467C5.08748 35.555 5.14616 35.6466 5.16168 35.6759C5.17668 35.7809 5.26968 35.8559 5.37468 35.8484C5.45568 36.2924 5.53668 36.7364 5.63868 37.1804C5.66211 37.2839 5.68563 37.3889 5.70934 37.4947C5.78732 37.8425 5.86741 38.1999 5.95368 38.5484C6.13518 39.2384 6.32868 39.9194 6.54168 40.5914L6.60168 40.8074C6.80568 41.4486 7.02222 42.0857 7.25118 42.7184C7.11816 42.6054 6.98956 42.4873 6.86568 42.3644C6.44932 40.6121 5.57441 39.0021 4.33068 37.6994C3.15399 36.4791 1.66238 35.6084 0.0211763 35.1839C0.190676 36.0884 0.501176 36.9599 0.943676 37.7684C1.57368 39.0164 2.38368 40.1669 3.34668 41.1809C4.19868 42.0599 5.46618 42.9119 6.71268 42.5414C6.76289 42.598 6.93259 42.778 7.07158 42.9254C7.16094 43.0202 7.23761 43.1015 7.26168 43.1279C7.30218 43.1879 7.36368 43.2284 7.43268 43.2449C7.4389 43.2449 7.44246 43.2462 7.44246 43.2462L7.44318 43.2509C8.29919 45.5779 9.42593 47.7962 10.8002 49.8599C10.6787 49.7849 10.5572 49.7099 10.4252 49.6319C9.6063 48.0761 8.36122 46.7858 6.83568 45.9119C5.55426 45.1536 4.09461 44.7489 2.60568 44.7389L2.23068 44.7644C2.53518 45.5969 3.01668 46.3544 3.64068 46.9859C4.53506 48.028 5.59778 48.9127 6.78468 49.6034C7.29537 49.9696 7.89818 50.186 8.52521 50.2281C9.15223 50.2703 9.77857 50.1365 10.3337 49.8419C10.3858 49.8854 10.575 50.02 10.7389 50.1367C10.8578 50.2213 10.9634 50.2964 10.9937 50.3204C11.017 50.3407 11.0442 50.3561 11.0735 50.3659C11.1028 50.3757 11.1338 50.3796 11.1647 50.3774C11.2365 50.4722 11.3034 50.57 11.3689 50.6659C11.4061 50.7202 11.4428 50.7738 11.4797 50.8259C11.8757 51.3449 12.2807 51.8489 12.6962 52.3409C12.7199 52.3646 12.7405 52.3883 12.7616 52.4126C12.7766 52.4298 12.7919 52.4474 12.8087 52.4654C13.1927 52.9094 13.5782 53.3459 13.9742 53.7629C14.822 54.665 15.7225 55.516 16.6712 56.3114C16.5116 56.2923 16.353 56.2663 16.1957 56.2334C15.0113 54.9411 13.4678 54.0322 11.7632 53.6234C10.4072 53.3057 8.98589 53.42 7.69818 53.9504C7.61677 53.9802 7.54456 54.01 7.47025 54.0406C7.43228 54.0563 7.39376 54.0722 7.35318 54.0884C8.17368 55.7099 11.0837 57.1844 12.5132 57.4829C13.1544 57.6605 13.8315 57.6626 14.4737 57.489C15.116 57.3153 15.6998 56.9724 16.1642 56.4959C16.2146 56.5114 16.3521 56.54 16.4951 56.5698C16.6713 56.6066 16.8557 56.645 16.8947 56.6624C16.9592 56.6984 17.0372 56.6924 17.0972 56.6519C18.9379 58.1521 20.9746 59.394 23.1512 60.3434C23.0102 60.3809 22.8677 60.4154 22.7162 60.4454C21.3528 59.5484 19.7034 59.1932 18.0917 59.4494C16.6152 59.7144 15.2459 60.3981 14.1467 61.4189C14.0456 61.4958 13.9536 61.5839 13.8722 61.6814C14.5172 62.2124 15.2897 62.5664 16.1147 62.7089C17.3447 63.0314 18.6317 63.0839 19.8857 62.8664C20.5173 62.8179 21.123 62.5949 21.6353 62.2223C22.1475 61.8496 22.5462 61.3419 22.7867 60.7559C22.8405 60.7443 22.9026 60.7316 22.969 60.7179C23.1782 60.6748 23.4311 60.6226 23.6087 60.5714C23.6121 60.5695 23.6148 60.5667 23.6164 60.5631C23.618 60.5596 23.6185 60.5557 23.6177 60.5519C24.1117 60.7477 24.612 60.9273 25.1177 61.0904L25.3022 61.1519C26.9267 61.6649 28.6097 61.9754 30.3122 62.0744C30.1825 62.1625 30.0466 62.2412 29.9057 62.3099C28.3367 61.8843 26.6651 62.0625 25.2212 62.8094C23.8842 63.5509 22.7729 64.6404 22.0052 65.9624C21.9884 65.9914 21.9715 66.0199 21.9549 66.0481C21.9016 66.1383 21.8495 66.2265 21.8027 66.3224C22.5533 66.6437 23.3773 66.7546 24.1862 66.6434C25.4516 66.57 26.6863 66.2241 27.8057 65.6294C28.409 65.3619 28.9332 64.9433 29.3276 64.4142C29.722 63.885 29.9733 63.263 30.0572 62.6084C30.1502 62.5435 30.2781 62.469 30.4084 62.393C30.5493 62.3109 30.693 62.2272 30.7982 62.1524C30.8166 62.1393 30.8307 62.121 30.8387 62.0999C31.5632 62.1194 32.2862 62.0999 33.0092 62.0399L33.4547 62.0009C34.1707 61.9322 34.8812 61.8265 35.585 61.684C36.4382 61.8588 37.3019 61.9777 38.1707 62.0399C38.8922 62.0999 39.6167 62.1194 40.3412 62.0999C40.3493 62.1184 40.3594 62.136 40.3712 62.1524C40.4696 62.2224 40.6043 62.3002 40.7375 62.3773C40.8783 62.4586 41.0174 62.5391 41.1107 62.6084C41.1946 63.2645 41.4471 63.8876 41.8435 64.417C42.2399 64.9465 42.7668 65.3642 43.3727 65.6294C44.4888 66.2242 45.7206 66.5701 46.9832 66.6434C47.7916 66.7551 48.6152 66.6441 49.3652 66.3224C49.3155 66.2182 49.2587 66.1232 49.1998 66.0247C49.1875 66.0041 49.1751 65.9834 49.1627 65.9624C48.4028 64.6384 47.2947 63.5479 45.9587 62.8094C44.5141 62.0628 42.8422 61.8846 41.2727 62.3099C41.1302 62.2394 40.9922 62.1599 40.8572 62.0744C42.5589 61.975 44.2417 61.6652 45.8672 61.1519L46.0502 61.0904C46.5362 60.9344 47.0132 60.7649 47.4797 60.5774C47.4886 60.5743 47.4967 60.5716 47.5043 60.569C47.522 60.5631 47.5365 60.5582 47.5502 60.5519C47.5537 60.5537 47.5566 60.5565 47.5585 60.56C47.5603 60.5635 47.5611 60.5675 47.5607 60.5714C47.731 60.6205 47.9761 60.6705 48.1824 60.7125C48.2596 60.7282 48.3313 60.7429 48.3917 60.7559C48.6298 61.3433 49.0275 61.8523 49.54 62.2253C50.0524 62.5983 50.659 62.8204 51.2912 62.8664C52.5429 63.0848 53.827 63.031 55.0562 62.7089C55.8812 62.5664 56.6567 62.2109 57.3062 61.6814C57.2227 61.5864 57.1314 61.4986 57.0332 61.4189C55.9325 60.4002 54.5639 59.7169 53.0882 59.4494C51.4759 59.1928 49.826 59.548 48.4622 60.4454C48.3122 60.4154 48.1697 60.3809 48.0272 60.3434C50.2016 59.3962 52.2352 58.154 54.0707 56.6519C54.1003 56.6727 54.1351 56.6847 54.1712 56.6865C54.2073 56.6884 54.2431 56.68 54.2747 56.6624C54.3111 56.6458 54.4847 56.6098 54.655 56.5746C54.8069 56.5431 54.9563 56.5122 55.0037 56.4959C55.4684 56.9718 56.0523 57.3144 56.6944 57.488C57.3365 57.6616 58.0135 57.6598 58.6547 57.4829C60.0842 57.1844 62.9957 55.7099 63.8267 54.0884L63.4817 53.9504C62.1934 53.4204 60.7716 53.3061 59.4152 53.6234C57.708 54.0322 56.1616 54.9409 54.9737 56.2334C54.8533 56.262 54.7253 56.2802 54.6017 56.2978C54.5698 56.3023 54.5383 56.3068 54.5072 56.3114C55.4558 55.516 56.3564 54.665 57.2042 53.7629C58.0831 52.8277 58.9127 51.8474 59.6897 50.8259C59.7753 50.7149 59.8555 50.5967 59.9345 50.4804C59.958 50.4458 59.9813 50.4114 60.0047 50.3774C60.0697 50.3817 60.134 50.3613 60.1847 50.3204C60.2264 50.2874 60.4075 50.1572 60.5721 50.039C60.6916 49.9531 60.8024 49.8735 60.8447 49.8419C61.3981 50.1368 62.0231 50.2707 62.6488 50.2285C63.2744 50.1864 63.8758 49.9698 64.3847 49.6034C65.5761 48.9154 66.6422 48.0304 67.5377 46.9859C68.1626 46.3576 68.641 45.599 68.9387 44.7644C68.8467 44.7592 68.7653 44.7534 68.6809 44.7473C68.6429 44.7445 68.6042 44.7417 68.5637 44.7389C67.0749 44.7501 65.6156 45.1548 64.3337 45.9119C62.8113 46.7864 61.5698 48.0769 60.7547 49.6319C60.675 49.6755 60.6052 49.7182 60.5361 49.7604C60.4816 49.7937 60.4274 49.8268 60.3692 49.8599C61.7502 47.7987 62.8802 45.58 63.7352 43.2509V43.2449C63.7704 43.2381 63.8038 43.2243 63.8335 43.2042C63.8631 43.184 63.8884 43.1581 63.9077 43.1279C63.9298 43.1036 63.9964 43.033 64.0763 42.9481C64.2186 42.797 64.4033 42.601 64.4552 42.5414C65.7122 42.9119 66.9707 42.0599 67.8212 41.1809C68.7881 40.1671 69.6017 39.0175 70.2362 37.7684C70.668 36.9565 70.9788 36.0858 71.1587 35.1839C71.0342 35.2064 70.9127 35.2394 70.7927 35.2844C69.291 35.7349 67.9318 36.567 66.8477 37.6994C65.6004 38.9995 64.7249 40.6105 64.3127 42.3644C64.2327 42.4435 64.1516 42.5163 64.0732 42.5868C64.0236 42.6313 63.9751 42.6749 63.9287 42.7184C63.928 42.7142 63.9286 42.7099 63.9301 42.7059C63.9317 42.702 63.9343 42.6985 63.9377 42.6959C64.1627 42.0764 64.3637 41.4479 64.5677 40.8074C64.5782 40.7686 64.5917 40.7299 64.6053 40.6911C64.6169 40.6579 64.6285 40.6246 64.6382 40.5914C64.8407 39.9194 65.0327 39.2384 65.2157 38.5484C65.449 37.6575 65.6422 36.7566 65.7947 35.8484C65.8457 35.8535 65.8967 35.8382 65.9366 35.8059C65.9765 35.7736 66.002 35.7269 66.0077 35.6759L66.015 35.6646C66.0831 35.5595 66.3847 35.0938 66.4322 34.9844C67.04 34.9035 67.6178 34.6712 68.1124 34.3087C68.607 33.9462 69.0025 33.4652 69.2627 32.9099ZM35.585 61.684C35.5544 61.6777 35.5238 61.6713 35.4932 61.6649C35.5178 61.5945 35.5501 61.5275 35.5893 61.4651C35.6283 61.5271 35.6605 61.5935 35.6852 61.6634C35.6518 61.6703 35.6184 61.6772 35.585 61.684Z" fill="url(#paint0_linear)"/>
<path d="M21.4018 25C21.9684 25 22.4867 25.085 22.9569 25.2549C23.4271 25.4192 23.8294 25.6543 24.1636 25.9602C24.4979 26.2662 24.7585 26.6344 24.9454 27.065C25.1324 27.4955 25.2258 27.9742 25.2258 28.5011C25.2258 28.9543 25.1579 29.3735 25.0219 29.7588C24.8916 30.144 24.7131 30.5122 24.4865 30.8635C24.2656 31.2147 24.005 31.5546 23.7047 31.8832C23.4045 32.2118 23.0901 32.546 22.7615 32.8859L19.9827 35.7157C20.2546 35.6364 20.5209 35.5769 20.7815 35.5372C21.0478 35.4919 21.2999 35.4693 21.5378 35.4693H24.6905C24.9171 35.4693 25.0955 35.5344 25.2258 35.6647C25.3618 35.7893 25.4298 35.9565 25.4298 36.1661V37.4237H17V36.7269C17 36.5853 17.0283 36.438 17.085 36.285C17.1473 36.1264 17.2436 35.9848 17.3739 35.8601L21.1044 32.1211C21.416 31.8039 21.6936 31.5008 21.9372 31.2119C22.1865 30.9229 22.3933 30.6369 22.5575 30.3536C22.7218 30.0703 22.8465 29.7842 22.9314 29.4953C23.0221 29.2007 23.0674 28.892 23.0674 28.5691C23.0674 28.2745 23.0249 28.0167 22.9399 27.7958C22.855 27.5692 22.7332 27.3794 22.5745 27.2264C22.4216 27.0735 22.2346 26.9602 22.0137 26.8865C21.7984 26.8072 21.5548 26.7675 21.2829 26.7675C21.0336 26.7675 20.8013 26.8044 20.5861 26.878C20.3764 26.946 20.1895 27.0451 20.0252 27.1754C19.8609 27.3001 19.7221 27.4474 19.6088 27.6173C19.4955 27.7873 19.4105 27.9742 19.3539 28.1782C19.2576 28.4388 19.1329 28.6116 18.98 28.6965C18.827 28.7815 18.6061 28.8013 18.3172 28.756L17.2124 28.5606C17.2974 27.9714 17.4617 27.4559 17.7053 27.014C17.9489 26.5664 18.252 26.1954 18.6146 25.9008C18.9828 25.6005 19.402 25.3767 19.8722 25.2294C20.3481 25.0765 20.858 25 21.4018 25Z" fill="url(#paint1_linear)"/>
<path d="M35.6879 31.2799C35.6879 32.3506 35.5718 33.2825 35.3395 34.0756C35.1129 34.8631 34.7957 35.5146 34.3878 36.0301C33.9855 36.5456 33.5068 36.9309 32.9516 37.1858C32.4021 37.4351 31.8073 37.5597 31.1671 37.5597C30.5269 37.5597 29.9321 37.4351 29.3826 37.1858C28.8387 36.9309 28.3657 36.5456 27.9635 36.0301C27.5612 35.5146 27.2468 34.8631 27.0202 34.0756C26.7936 33.2825 26.6803 32.3506 26.6803 31.2799C26.6803 30.2035 26.7936 29.2715 27.0202 28.4841C27.2468 27.6966 27.5612 27.0451 27.9635 26.5296C28.3657 26.0141 28.8387 25.6317 29.3826 25.3824C29.9321 25.1275 30.5269 25 31.1671 25C31.8073 25 32.4021 25.1275 32.9516 25.3824C33.5068 25.6317 33.9855 26.0141 34.3878 26.5296C34.7957 27.0451 35.1129 27.6966 35.3395 28.4841C35.5718 29.2715 35.6879 30.2035 35.6879 31.2799ZM33.521 31.2799C33.521 30.3904 33.4558 29.6539 33.3255 29.0704C33.1952 28.4869 33.0196 28.0224 32.7987 27.6768C32.5834 27.3312 32.3341 27.0905 32.0509 26.9545C31.7676 26.8129 31.473 26.742 31.1671 26.742C30.8669 26.742 30.5751 26.8129 30.2918 26.9545C30.0142 27.0905 29.7678 27.3312 29.5525 27.6768C29.3373 28.0224 29.1645 28.4869 29.0342 29.0704C28.9095 29.6539 28.8472 30.3904 28.8472 31.2799C28.8472 32.1693 28.9095 32.9058 29.0342 33.4893C29.1645 34.0728 29.3373 34.5373 29.5525 34.8829C29.7678 35.2285 30.0142 35.4721 30.2918 35.6137C30.5751 35.7497 30.8669 35.8177 31.1671 35.8177C31.473 35.8177 31.7676 35.7497 32.0509 35.6137C32.3341 35.4721 32.5834 35.2285 32.7987 34.8829C33.0196 34.5373 33.1952 34.0728 33.3255 33.4893C33.4558 32.9058 33.521 32.1693 33.521 31.2799Z" fill="url(#paint2_linear)"/>
<path d="M38.1536 35.8517H40.6434V28.688C40.6434 28.4104 40.6519 28.1187 40.6689 27.8128L38.9014 29.2914C38.7994 29.3707 38.6975 29.4217 38.5955 29.4443C38.4992 29.4613 38.4057 29.4613 38.3151 29.4443C38.2301 29.4273 38.1536 29.399 38.0856 29.3594C38.0176 29.314 37.9667 29.2659 37.9327 29.2149L37.2698 28.3056L41.0174 25.119H42.7424V35.8517H44.9518V37.4237H38.1536V35.8517Z" fill="url(#paint3_linear)"/>
<path d="M51.6494 32.6565C51.7457 32.5375 51.8363 32.4214 51.9213 32.3081C52.0063 32.1948 52.0884 32.0815 52.1678 31.9682C51.8845 32.1495 51.5729 32.2883 51.233 32.3846C50.8931 32.4752 50.5362 32.5205 50.1623 32.5205C49.7374 32.5205 49.321 32.4469 48.9131 32.2996C48.5052 32.1523 48.1426 31.9313 47.8254 31.6368C47.5081 31.3365 47.2504 30.9683 47.0521 30.532C46.8595 30.0902 46.7632 29.5746 46.7632 28.9855C46.7632 28.4359 46.8651 27.9204 47.0691 27.4389C47.273 26.9573 47.5591 26.5353 47.9274 26.1727C48.2956 25.8101 48.7375 25.524 49.253 25.3144C49.7686 25.1048 50.3379 25 50.9611 25C51.5899 25 52.1536 25.0991 52.6521 25.2974C53.1563 25.4957 53.584 25.7733 53.9353 26.1302C54.2922 26.4871 54.5641 26.9148 54.7511 27.4134C54.9437 27.9119 55.04 28.4586 55.04 29.0534C55.04 29.433 55.006 29.7927 54.938 30.1327C54.8757 30.4726 54.7851 30.8011 54.6661 31.1184C54.5471 31.43 54.4027 31.7359 54.2327 32.0362C54.0628 32.3364 53.873 32.6338 53.6634 32.9284L50.8506 36.9394C50.7543 37.0753 50.6098 37.1915 50.4172 37.2878C50.2246 37.3784 50.0065 37.4237 49.7629 37.4237H47.8339L51.6494 32.6565ZM53.0345 28.841C53.0345 28.5067 52.9835 28.2093 52.8816 27.9487C52.7796 27.6825 52.6351 27.4587 52.4482 27.2774C52.2612 27.0961 52.0375 26.9573 51.7769 26.861C51.5219 26.7647 51.2415 26.7165 50.9356 26.7165C50.6183 26.7165 50.3322 26.7704 50.0773 26.878C49.8224 26.98 49.6043 27.1244 49.423 27.3114C49.2417 27.4983 49.1029 27.7221 49.0066 27.9827C48.9103 28.2376 48.8621 28.5181 48.8621 28.824C48.8621 29.5095 49.0377 30.0335 49.389 30.3961C49.7459 30.753 50.2501 30.9314 50.9016 30.9314C51.2415 30.9314 51.5446 30.8776 51.8108 30.77C52.0771 30.6623 52.3009 30.5151 52.4822 30.3281C52.6635 30.1411 52.7994 29.9202 52.8901 29.6653C52.9864 29.4103 53.0345 29.1356 53.0345 28.841Z" fill="url(#paint4_linear)"/>
<defs>
<linearGradient id="paint0_linear" x1="35.5854" y1="7.43091" x2="35.5854" y2="66.6856" gradientUnits="userSpaceOnUse">
<stop stop-color="#EFAE5B"/>
<stop offset="1" stop-color="#A96C31"/>
</linearGradient>
<linearGradient id="paint1_linear" x1="36.02" y1="25" x2="36.02" y2="37.5597" gradientUnits="userSpaceOnUse">
<stop stop-color="#EFAE5B"/>
<stop offset="1" stop-color="#A96C31"/>
</linearGradient>
<linearGradient id="paint2_linear" x1="36.02" y1="25" x2="36.02" y2="37.5597" gradientUnits="userSpaceOnUse">
<stop stop-color="#EFAE5B"/>
<stop offset="1" stop-color="#A96C31"/>
</linearGradient>
<linearGradient id="paint3_linear" x1="36.02" y1="25" x2="36.02" y2="37.5597" gradientUnits="userSpaceOnUse">
<stop stop-color="#EFAE5B"/>
<stop offset="1" stop-color="#A96C31"/>
</linearGradient>
<linearGradient id="paint4_linear" x1="36.02" y1="25" x2="36.02" y2="37.5597" gradientUnits="userSpaceOnUse">
<stop stop-color="#EFAE5B"/>
<stop offset="1" stop-color="#A96C31"/>
</linearGradient>
</defs>
</svg>
