<svg width="16" height="16" viewBox="0 0 16 16" fill="none" xmlns="http://www.w3.org/2000/svg">
<path d="M0.928635 0.928875C0.538106 1.3194 0.538117 1.95257 0.928635 2.34309L6.58549 7.99994L0.928635 13.6568C0.538106 14.0473 0.538117 14.6805 0.928635 15.071C1.31915 15.4615 1.95232 15.4615 2.34285 15.071L7.9997 9.41416L13.6566 15.071C14.0471 15.4615 14.6802 15.4615 15.0708 15.071C15.4613 14.6805 15.4613 14.0473 15.0708 13.6568L9.41392 7.99994L15.0708 2.34309C15.4613 1.95257 15.4613 1.31939 15.0708 0.928875C14.6803 0.538357 14.0471 0.538357 13.6566 0.928875L7.9997 6.58573L2.34285 0.928875C1.95233 0.538357 1.31915 0.538357 0.928635 0.928875Z" fill="#222222"/>
</svg>
