<svg width="72" height="72" viewBox="0 0 72 72" fill="none" xmlns="http://www.w3.org/2000/svg">
<path fill-rule="evenodd" clip-rule="evenodd" d="M69.2627 32.91C69.9675 31.6616 70.5027 30.3248 70.8542 28.935C71.0875 28.0885 71.1902 27.2114 71.1587 26.334C71.1261 26.3544 71.0933 26.376 71.0597 26.3981C70.9898 26.444 70.9163 26.4924 70.8332 26.538C69.1949 27.4757 67.9093 28.9247 67.1732 30.663C66.6449 31.9822 66.3334 33.3783 66.2507 34.797C66.1293 34.9992 66.0075 35.2022 65.8847 35.3985C66.2426 33.1297 66.3653 30.83 66.2507 28.536C66.2903 28.5181 66.3244 28.4899 66.3492 28.4542C66.374 28.4186 66.3887 28.3768 66.3917 28.3335C66.4006 28.2972 66.4459 28.159 66.4955 28.008C66.5547 27.8277 66.6199 27.6293 66.6362 27.564C67.22 27.3233 67.7394 26.9495 68.153 26.4724C68.5665 25.9952 68.8628 25.428 69.0182 24.816C69.4427 23.469 69.6887 22.0725 69.7502 20.6625C69.8057 19.806 69.7202 18.945 69.4952 18.1155C69.4037 18.201 69.3122 18.291 69.2222 18.381C68.1277 19.4308 67.3117 20.7366 66.8477 22.1805C66.2586 23.8302 66.1188 25.6069 66.4427 27.3285C66.4096 27.4369 66.3701 27.5567 66.3292 27.6806C66.2961 27.7813 66.262 27.8847 66.2297 27.987C66.0767 25.5795 65.6612 23.196 64.9937 20.8785C65.024 20.8496 65.0477 20.8146 65.0632 20.7758C65.0787 20.737 65.0857 20.6952 65.0837 20.6535C65.1152 20.547 65.2262 20.0355 65.2457 19.8855C66.2912 19.5255 66.9392 17.961 67.0832 16.7865C67.2182 16.017 67.2392 15.231 67.1432 14.454C67.0337 13.065 66.6182 11.7165 65.9252 10.506C65.9119 10.5265 65.8987 10.547 65.8854 10.5674C65.8281 10.6556 65.7714 10.7428 65.7227 10.833C65.0207 12.1185 64.5662 13.5255 64.3847 14.979C64.1286 16.6418 64.3648 18.3433 65.0642 19.8735C65.0292 20.0483 64.9942 20.2063 64.9593 20.3642C64.9432 20.4366 64.9272 20.509 64.9112 20.583C64.3403 18.6643 63.6004 16.8 62.7002 15.012C62.6912 14.982 62.6807 14.97 62.6702 14.9895C62.6852 14.9655 62.6852 14.9355 62.6702 14.9115C62.5785 14.7292 62.4757 14.5649 62.3741 14.4025C62.341 14.3496 62.3081 14.297 62.2757 14.244C62.7602 13.2735 62.7182 12.123 62.1632 11.1885C61.5571 9.94999 60.62 9.18053 59.632 8.3693C59.3288 8.12037 59.0208 7.86752 58.7162 7.59597C58.6652 7.53747 58.6112 7.48347 58.5527 7.43097C58.5332 7.48647 58.5227 7.54647 58.5227 7.60647C58.4025 8.84534 58.5799 10.095 59.0402 11.2515C59.2178 11.7167 59.4602 12.1545 59.7602 12.552C60.3444 13.3808 61.1691 14.0101 62.1227 14.355C62.178 14.459 62.2305 14.5471 62.2829 14.6351C62.337 14.726 62.391 14.8168 62.4482 14.925C62.458 14.9392 62.4662 14.9516 62.4734 14.9622C62.5096 15.0165 62.5165 15.027 62.5592 15.027C62.5431 15.0302 62.5357 15.0265 62.5322 15.0288C62.5292 15.0309 62.5292 15.0374 62.5292 15.057C62.8427 15.657 63.1277 16.2795 63.4007 16.9095C63.4348 16.9878 63.4657 17.0661 63.4968 17.1446C63.5216 17.2075 63.5465 17.2706 63.5732 17.334C63.8391 17.966 64.0793 18.6085 64.2932 19.26L64.26 19.2442C64.0871 19.1621 63.9078 19.0769 63.7457 18.9825C63.7442 17.8005 63.0827 16.719 62.0327 16.179C60.7817 15.6135 59.4512 15.249 58.0877 15.099C58.0112 15.09 57.9362 15.0705 57.8642 15.045C57.8684 15.098 57.8822 15.1498 57.9047 15.198C58.2151 16.2404 58.7958 17.1823 59.5877 17.928C60.1232 18.4185 60.7547 18.7905 61.4432 19.0185C62.1523 19.2759 62.9219 19.3167 63.6542 19.1355C63.8539 19.3155 64.0994 19.437 64.3637 19.4865C64.9912 21.4796 65.4223 23.5294 65.6507 25.6065C65.5909 25.5567 65.5266 25.5081 65.462 25.4593C65.3533 25.377 65.2442 25.2945 65.1557 25.206C65.3987 24.2355 65.1347 23.208 64.4552 22.473C63.5585 21.4828 62.3546 20.9756 61.1686 20.476C60.8131 20.3263 60.4592 20.1772 60.1157 20.016L59.9027 19.914C59.9143 19.9657 59.9209 20.0185 59.9222 20.0715C60.1228 21.2218 60.5767 22.3132 61.2512 23.2665C61.7043 23.8779 62.2724 24.3951 62.9237 24.789C63.5625 25.1717 64.2991 25.3594 65.0432 25.329C65.2122 25.5508 65.4311 25.7296 65.6822 25.851C65.9537 28.329 65.9702 30.8265 65.7332 33.309C65.682 33.2364 65.6272 33.1653 65.5725 33.0946C65.4973 32.9972 65.4225 32.9004 65.3582 32.8005C65.8307 31.8075 65.8337 30.654 65.3687 29.658C64.7105 28.3091 63.6162 27.3702 62.5356 26.443C62.2175 26.1701 61.9005 25.8981 61.5962 25.617C61.5706 25.5932 61.5468 25.5679 61.5226 25.5422C61.4888 25.5063 61.4543 25.4696 61.4132 25.4355C61.4011 25.4973 61.3941 25.56 61.3922 25.623C61.2943 26.9246 61.4706 28.2323 61.9097 29.4615C62.2124 30.2573 62.6555 30.9925 63.2177 31.632C63.7454 32.2411 64.44 32.6822 65.2157 32.901C65.3356 33.1683 65.4966 33.4153 65.6927 33.633C65.4565 35.9328 64.9943 38.2038 64.3127 40.413C64.2103 40.7562 64.09 41.088 63.9683 41.4235C63.9581 41.4517 63.9479 41.4798 63.9377 41.508C63.8462 41.2965 63.7682 41.0805 63.7052 40.8585C64.3772 39.837 64.6292 38.595 64.4042 37.3935C64.1098 35.7908 63.3604 34.6063 62.575 33.3649C62.332 32.9809 62.0856 32.5914 61.8482 32.1825L61.7282 31.9275C61.6973 31.986 61.6731 32.0479 61.6562 32.112C61.2152 33.438 61.0487 34.8405 61.1702 36.2325C61.2617 37.1608 61.5049 38.0679 61.8902 38.9175C62.2516 39.7161 62.8183 40.4045 63.5327 40.9125C63.5798 41.2368 63.679 41.5514 63.8267 41.844C62.9478 44.3151 61.7909 46.6782 60.3782 48.888C60.3749 48.7937 60.3699 48.699 60.365 48.6046C60.3566 48.4423 60.3482 48.281 60.3482 48.1245C60.9977 47.8425 61.6262 46.62 61.7282 45.141C61.7729 43.5049 61.283 41.9745 60.7959 40.4525C60.6291 39.9316 60.4627 39.4118 60.3182 38.889C60.3023 38.8374 60.289 38.7876 60.2755 38.7371C60.2635 38.6922 60.2513 38.6468 60.2372 38.5995C60.2152 38.6261 60.1994 38.6548 60.1835 38.6837C60.169 38.71 60.1545 38.7364 60.1352 38.7615C59.4541 39.9845 59.0137 41.3267 58.8377 42.7155C58.7459 43.6839 58.7903 44.6604 58.9697 45.6165C59.1405 46.5292 59.5267 47.388 60.0962 48.1215C60.0826 48.4833 60.1129 48.8454 60.1862 49.2C58.7099 51.4709 56.944 53.5398 54.9332 55.3545L54.9338 55.3509C54.9741 55.1255 55.016 54.8913 55.0757 54.6795C55.5701 54.4307 56.0092 54.0846 56.3665 53.6619C56.7238 53.2391 56.9919 52.7485 57.1547 52.2195C57.6922 50.5201 57.6332 48.7462 57.5737 46.9568C57.5592 46.5191 57.5446 46.0806 57.5387 45.642C57.5492 45.5415 57.5522 45.4395 57.5492 45.339C57.5078 45.3785 57.4637 45.4151 57.4172 45.4485C56.4362 46.4333 55.6612 47.6035 55.1372 48.891C54.7742 49.812 54.5522 50.7825 54.4772 51.771C54.3882 52.7253 54.5058 53.6877 54.8222 54.5925C54.736 54.8995 54.6748 55.213 54.6392 55.53C54.6306 55.5561 54.627 55.5835 54.6287 55.611C52.8234 57.1898 50.8064 58.5085 48.6362 59.529C48.7127 59.316 48.8042 59.109 48.9107 58.9095C49.4449 58.827 49.9553 58.6315 50.408 58.3362C50.8606 58.0408 51.2451 57.6522 51.5357 57.1965C52.4234 55.7545 52.7999 54.0849 53.1838 52.382C53.2956 51.8865 53.4079 51.3883 53.5337 50.892C53.5469 50.8325 53.5678 50.77 53.589 50.7068C53.6015 50.6696 53.6141 50.6322 53.6252 50.595C53.5973 50.6089 53.5663 50.6215 53.5355 50.634C53.5101 50.6443 53.4848 50.6546 53.4617 50.6655C52.2855 51.3035 51.2619 52.1894 50.4617 53.262C49.8812 54.0525 49.4237 54.927 49.1012 55.8525C48.7698 56.7745 48.6319 57.7548 48.6962 58.7325C48.5566 59.043 48.4315 59.3599 48.3212 59.682C46.1122 60.685 43.7432 61.2893 41.3237 61.467C41.4248 61.3016 41.5402 61.1455 41.6687 61.0005C42.2057 61.35 43.4837 60.9795 44.5082 60.252C45.6773 59.2281 46.4272 57.8551 47.2042 56.4326C47.438 56.0045 47.6743 55.5719 47.9252 55.143C47.9713 55.0566 48.0224 54.9729 48.0782 54.8925H47.9162C46.7197 55.0395 45.5775 55.4772 44.5892 56.1675C43.8345 56.7067 43.1762 57.3696 42.6422 58.128C42.0992 58.9245 41.7197 59.82 41.5277 60.765C41.3552 60.99 41.1962 61.224 41.0507 61.467C41.04 61.4738 41.0324 61.4846 41.0297 61.497C41.0097 61.4977 40.9922 61.4999 40.9761 61.502C40.9595 61.5041 40.9444 61.506 40.9292 61.506C39.2387 61.6035 37.5407 61.4895 35.8787 61.167C35.7616 61.2453 35.6632 61.3472 35.5893 61.4651C35.5155 61.3478 35.4176 61.2465 35.3012 61.1685C33.6347 61.4895 31.9352 61.6035 30.2402 61.506C30.2235 61.506 30.2068 61.5037 30.1902 61.5013C30.1768 61.4995 30.1635 61.4976 30.1502 61.497C30.1402 61.4894 30.1329 61.4789 30.1292 61.467C30.054 61.3609 29.9761 61.2417 29.9041 61.1316C29.7908 60.9582 29.6921 60.8072 29.6417 60.765C29.4519 59.8213 29.0761 58.9248 28.5362 58.128C27.9966 57.3742 27.3392 56.7122 26.5892 56.1675C25.5967 55.4788 24.452 55.0413 23.2532 54.8925H23.0912C23.1497 54.9735 23.2037 55.0575 23.2532 55.143C23.4953 55.5604 23.7241 55.9814 23.9506 56.3983C24.73 57.833 25.4835 59.2199 26.6702 60.252C27.6842 60.9795 28.9622 61.35 29.4992 61.0005C29.6312 61.143 29.7467 61.3005 29.8442 61.467C27.4278 61.2904 25.0621 60.686 22.8572 59.682C22.8464 59.6625 22.8398 59.6411 22.8377 59.619C22.7294 59.3185 22.6072 59.0232 22.4717 58.734C22.5396 57.7571 22.4053 56.7766 22.0772 55.854C21.7472 54.9309 21.2898 54.0584 20.7182 53.262C19.9176 52.1893 18.8934 51.3033 17.7167 50.6655C17.6944 50.655 17.6701 50.6451 17.6457 50.6351C17.6143 50.6223 17.5826 50.6093 17.5547 50.595C17.5652 50.6302 17.577 50.6657 17.5888 50.7009C17.6105 50.7661 17.632 50.8306 17.6447 50.892C17.7631 51.3684 17.8698 51.8467 17.9759 52.3226C18.3603 54.046 18.7376 55.7377 19.6427 57.1965C19.9305 57.6528 20.3131 58.0419 20.7644 58.3374C21.2158 58.6329 21.7254 58.828 22.2587 58.9095C22.3447 59.0642 22.4123 59.2225 22.4802 59.3817C22.5011 59.4307 22.5221 59.4798 22.5437 59.529C20.3715 58.5111 18.3537 57.1921 16.5497 55.611C16.5097 55.2669 16.4456 54.926 16.3577 54.591C16.6689 53.6855 16.7864 52.7248 16.7027 51.771C16.5243 49.3736 15.4742 47.1245 13.7507 45.4485C13.7347 45.436 13.7187 45.4217 13.7021 45.4068C13.6766 45.384 13.6495 45.3598 13.6187 45.339C13.6202 45.4395 13.6277 45.5415 13.6397 45.642C13.6322 46.0543 13.6178 46.4666 13.6033 46.8781C13.5397 48.6942 13.4766 50.4952 14.0147 52.2195C14.1808 52.7469 14.4502 53.236 14.8071 53.6583C15.164 54.0806 15.6013 54.4277 16.0937 54.6795C16.1552 54.903 16.2062 55.128 16.2452 55.3545C14.2288 53.5427 12.4596 51.4734 10.9832 49.2C11.0612 48.846 11.0927 48.4845 11.0732 48.1215C11.6477 47.391 12.0332 46.5315 12.1997 45.6165C12.384 44.661 12.4285 43.6838 12.3317 42.7155C12.1647 41.3245 11.7231 39.9805 11.0327 38.7615C11.0028 38.7053 10.9693 38.6512 10.9322 38.5995C10.9038 38.6947 10.8803 38.7913 10.8617 38.889C10.7165 39.4126 10.5489 39.9333 10.381 40.455C9.89145 41.9762 9.39918 43.5058 9.45168 45.141C9.54168 46.62 10.1822 47.8425 10.8317 48.1245L10.8302 48.1584C10.8202 48.3956 10.8097 48.6432 10.7897 48.888C9.37642 46.6801 8.22278 44.3165 7.35168 41.844C7.49568 41.55 7.59468 41.235 7.64568 40.9125C8.36007 40.4069 8.92449 39.7176 9.27918 38.9175C9.66468 38.0685 9.90768 37.161 9.99918 36.2325C10.119 34.8409 9.95675 33.4394 9.52218 32.112C9.51054 32.0699 9.49463 32.0326 9.47954 31.9973C9.46935 31.9734 9.45954 31.9504 9.45168 31.9275C9.40068 32.016 9.36018 32.097 9.31968 32.1825C9.0766 32.6056 8.82268 33.0078 8.57211 33.4047C7.79753 34.6316 7.05495 35.8079 6.76368 37.3935C6.54539 38.5956 6.79608 39.8356 7.46418 40.8585C7.40418 41.082 7.32768 41.2995 7.23018 41.508C7.18045 41.3569 7.12685 41.2069 7.07313 41.0565C6.99722 40.844 6.92106 40.6308 6.85518 40.413C6.17358 38.2038 5.71134 35.9328 5.47518 33.633C5.67918 33.4185 5.84268 33.171 5.96268 32.901C6.73727 32.6798 7.43123 32.2391 7.96068 31.632C8.52018 30.9915 8.95968 30.2565 9.25818 29.4615C9.69618 28.2315 9.87468 26.9265 9.78618 25.623C9.77423 25.5611 9.76721 25.4984 9.76518 25.4355C9.72072 25.4724 9.68044 25.5122 9.64133 25.5509C9.61841 25.5736 9.5959 25.5959 9.57318 25.617C9.27045 25.8966 8.95522 26.1672 8.63888 26.4387C7.55703 27.3673 6.46229 28.307 5.81118 29.658C5.58237 30.1502 5.46383 30.6864 5.46383 31.2292C5.46383 31.772 5.58237 32.3083 5.81118 32.8005C5.74504 32.9123 5.6625 33.0204 5.57911 33.1296C5.53389 33.1888 5.48842 33.2483 5.44518 33.309C5.20518 30.828 5.22018 28.329 5.49618 25.851C5.74368 25.7235 5.96118 25.5465 6.13518 25.329C6.87618 25.359 7.60968 25.17 8.24418 24.789C8.89595 24.3953 9.46458 23.8781 9.91818 23.2665C10.5932 22.314 11.0462 21.222 11.2457 20.0715C11.2576 20.0197 11.2646 19.967 11.2667 19.914C11.2382 19.9296 11.2071 19.9446 11.1747 19.9602C11.1387 19.9774 11.1012 19.9955 11.0642 20.016C10.7196 20.1775 10.3642 20.3269 10.0071 20.477C8.81909 20.9763 7.6124 21.4834 6.72318 22.473C6.38947 22.8352 6.15015 23.274 6.02641 23.7507C5.90266 24.2274 5.89828 24.7272 6.01368 25.206C5.8563 25.3492 5.6905 25.483 5.51718 25.6065C5.75568 23.5305 6.18618 21.4815 6.80418 19.4865C7.07168 19.4373 7.32064 19.3159 7.52418 19.1355C8.25318 19.3155 9.01968 19.2765 9.72468 19.0185C10.4177 18.7935 11.0537 18.42 11.5907 17.928C12.3797 17.1797 12.9603 16.2388 13.2752 15.198C13.28 15.169 13.2883 15.1422 13.2966 15.1154C13.3037 15.0923 13.3108 15.0693 13.3157 15.045C13.2422 15.0688 13.167 15.0868 13.0907 15.099C11.7237 15.2467 10.3889 15.6112 9.13668 16.179C8.62234 16.4453 8.19077 16.8473 7.88879 17.3416C7.58681 17.8358 7.42595 18.4033 7.42368 18.9825C7.24968 19.0845 7.06968 19.1775 6.88518 19.26C7.09818 18.6045 7.34268 17.9655 7.59618 17.334L7.77768 16.9095C8.04168 16.2795 8.32518 15.657 8.64018 15.057C8.64487 15.0382 8.64746 15.0314 8.64529 15.0291C8.6426 15.0263 8.63259 15.0303 8.61018 15.027C8.65281 15.027 8.65981 15.0165 8.69601 14.9622C8.70311 14.9516 8.71134 14.9392 8.72118 14.925C8.78855 14.7957 8.8526 14.6913 8.91971 14.5819C8.96317 14.511 9.00792 14.4381 9.05568 14.355C10.0079 14.0076 10.8318 13.3787 11.4182 12.552C11.7106 12.1497 11.9525 11.7129 12.1382 11.2515C12.5935 10.0937 12.7708 8.84522 12.6557 7.60647L12.6257 7.43097C12.5928 7.46053 12.5627 7.49009 12.532 7.52014C12.5067 7.54499 12.481 7.57017 12.4532 7.59597C12.1515 7.8649 11.8469 8.11551 11.5472 8.36211C10.5581 9.17599 9.62185 9.94634 9.01518 11.1885C8.7401 11.6469 8.58565 12.1676 8.56624 12.7019C8.54683 13.2362 8.66309 13.7668 8.90418 14.244C8.7594 14.4586 8.62718 14.6815 8.50818 14.9115C8.50225 14.9161 8.49746 14.922 8.49417 14.9288C8.49087 14.9355 8.48916 14.943 8.48916 14.9505C8.48916 14.958 8.49087 14.9654 8.49417 14.9722C8.49746 14.9789 8.50225 14.9848 8.50818 14.9895H8.49768C8.48868 14.97 8.47818 14.982 8.46768 15.012C7.57086 16.8002 6.83447 18.6645 6.26718 20.583C6.25109 20.5087 6.23412 20.4361 6.21714 20.3635C6.18028 20.2058 6.14341 20.0481 6.11568 19.8735C6.80659 18.3408 7.03894 16.6408 6.78468 14.979C6.60501 13.526 6.15421 12.1196 5.45568 10.833C5.39233 10.7192 5.32116 10.6099 5.24268 10.506C4.55404 11.7168 4.14218 13.0651 4.03668 14.454C3.9422 15.2299 3.95937 16.0154 4.08768 16.7865C4.22868 17.961 4.88868 19.5255 5.93268 19.8855C5.95218 20.0355 6.05418 20.547 6.08418 20.6535C6.08418 20.739 6.12168 20.8215 6.18618 20.8785C5.51745 23.1962 5.10251 25.5796 4.94868 27.987C4.88196 27.7992 4.82237 27.6073 4.76906 27.4357C4.75765 27.3989 4.74652 27.3631 4.73568 27.3285C5.06097 25.6062 4.91746 23.8282 4.32018 22.1805C3.85945 20.7379 3.04765 19.4323 1.95768 18.381C1.89794 18.3222 1.83372 18.2635 1.77088 18.2059C1.73746 18.1754 1.70444 18.1451 1.67268 18.1155C1.45124 18.9452 1.36913 19.8059 1.42968 20.6625C1.48518 22.0725 1.73118 23.4705 2.16018 24.816C2.31567 25.4282 2.61219 25.9955 3.02604 26.4726C3.4399 26.9498 3.95962 27.3235 4.54368 27.564C4.55994 27.629 4.62113 27.8262 4.67689 28.0059C4.72401 28.1577 4.76724 28.2971 4.77618 28.3335C4.79118 28.419 4.84368 28.4925 4.91868 28.536C4.80768 30.831 4.93368 33.1305 5.29368 35.3985C5.26415 35.3507 5.23401 35.3026 5.2037 35.2543C5.10927 35.1036 5.01321 34.9503 4.92918 34.797C4.84793 33.377 4.53269 31.9802 3.99618 30.663C3.26356 28.9254 1.98093 27.4762 0.345176 26.538C0.280605 26.5021 0.221541 26.4645 0.163707 26.4277C0.112718 26.3953 0.0626852 26.3635 0.0106763 26.334C-0.0158279 27.2112 0.0867688 28.0876 0.315176 28.935C0.675176 30.3225 1.21068 31.6575 1.90668 32.91C2.16792 33.4642 2.56358 33.9443 3.05766 34.3066C3.55175 34.6689 4.12858 34.9019 4.73568 34.9845C4.76714 35.0548 4.90646 35.2724 5.01812 35.4467C5.08748 35.555 5.14616 35.6467 5.16168 35.676C5.17668 35.781 5.26968 35.856 5.37468 35.8485C5.45568 36.2925 5.53668 36.7365 5.63868 37.1805C5.66211 37.284 5.68563 37.3889 5.70934 37.4947C5.78732 37.8426 5.86741 38.1999 5.95368 38.5485C6.13518 39.2385 6.32868 39.9195 6.54168 40.5915L6.60168 40.8075C6.80568 41.4487 7.02222 42.0858 7.25118 42.7185C7.11816 42.6055 6.98956 42.4874 6.86568 42.3645C6.44932 40.6122 5.57441 39.0022 4.33068 37.6995C3.15399 36.4791 1.66238 35.6085 0.0211763 35.184C0.190676 36.0885 0.501176 36.96 0.943676 37.7685C1.57368 39.0165 2.38368 40.167 3.34668 41.181C4.19868 42.06 5.46618 42.912 6.71268 42.5415C6.76289 42.5981 6.93259 42.7781 7.07158 42.9255C7.16094 43.0202 7.23761 43.1016 7.26168 43.128C7.30218 43.188 7.36368 43.2285 7.43268 43.245C7.4389 43.245 7.44246 43.2462 7.44246 43.2462L7.44318 43.251C8.29919 45.578 9.42593 47.7962 10.8002 49.86C10.6787 49.785 10.5572 49.71 10.4252 49.632C9.6063 48.0762 8.36122 46.7859 6.83568 45.912C5.55426 45.1537 4.09461 44.7489 2.60568 44.739L2.23068 44.7645C2.53518 45.597 3.01668 46.3545 3.64068 46.986C4.53506 48.028 5.59778 48.9128 6.78468 49.6035C7.29537 49.9697 7.89818 50.1861 8.52521 50.2282C9.15223 50.2703 9.77857 50.1366 10.3337 49.842C10.3858 49.8854 10.575 50.0201 10.7389 50.1367C10.8578 50.2214 10.9634 50.2965 10.9937 50.3205C11.017 50.3407 11.0442 50.3562 11.0735 50.366C11.1028 50.3758 11.1338 50.3797 11.1647 50.3775C11.2365 50.4723 11.3034 50.5701 11.3689 50.6659C11.4061 50.7202 11.4428 50.7739 11.4797 50.826C11.8757 51.345 12.2807 51.849 12.6962 52.341C12.7199 52.3647 12.7405 52.3884 12.7616 52.4127C12.7766 52.4299 12.7919 52.4474 12.8087 52.4655C13.1927 52.9095 13.5782 53.346 13.9742 53.763C14.822 54.6651 15.7225 55.5161 16.6712 56.3115C16.5116 56.2924 16.353 56.2663 16.1957 56.2335C15.0113 54.9412 13.4678 54.0323 11.7632 53.6235C10.4072 53.3057 8.98589 53.4201 7.69818 53.9505C7.61677 53.9803 7.54456 54.01 7.47025 54.0407C7.43228 54.0563 7.39376 54.0722 7.35318 54.0885C8.17368 55.71 11.0837 57.1845 12.5132 57.483C13.1544 57.6605 13.8315 57.6626 14.4737 57.489C15.116 57.3154 15.6998 56.9724 16.1642 56.496C16.2146 56.5114 16.3521 56.5401 16.4951 56.5699C16.6713 56.6066 16.8557 56.6451 16.8947 56.6625C16.9592 56.6985 17.0372 56.6925 17.0972 56.652C18.9379 58.1521 20.9746 59.3941 23.1512 60.3435C23.0102 60.381 22.8677 60.4155 22.7162 60.4455C21.3528 59.5485 19.7034 59.1932 18.0917 59.4495C16.6152 59.7145 15.2459 60.3981 14.1467 61.419C14.0456 61.4959 13.9536 61.584 13.8722 61.6815C14.5172 62.2125 15.2897 62.5665 16.1147 62.709C17.3447 63.0315 18.6317 63.084 19.8857 62.8665C20.5173 62.818 21.123 62.595 21.6353 62.2223C22.1475 61.8497 22.5462 61.342 22.7867 60.756C22.8405 60.7444 22.9026 60.7316 22.969 60.7179C23.1782 60.6748 23.4311 60.6227 23.6087 60.5715C23.6121 60.5696 23.6148 60.5667 23.6164 60.5632C23.618 60.5597 23.6185 60.5558 23.6177 60.552C24.1117 60.7477 24.612 60.9273 25.1177 61.0905L25.3022 61.152C26.9267 61.665 28.6097 61.9755 30.3122 62.0745C30.1825 62.1626 30.0466 62.2413 29.9057 62.31C28.3367 61.8843 26.6651 62.0626 25.2212 62.8095C23.8842 63.5509 22.7729 64.6405 22.0052 65.9625C21.9884 65.9915 21.9715 66.0199 21.9549 66.0482C21.9016 66.1384 21.8495 66.2265 21.8027 66.3225C22.5533 66.6437 23.3773 66.7547 24.1862 66.6435C25.4516 66.5701 26.6863 66.2242 27.8057 65.6295C28.409 65.362 28.9332 64.9434 29.3276 64.4142C29.722 63.885 29.9733 63.2631 30.0572 62.6085C30.1502 62.5436 30.2781 62.469 30.4084 62.3931C30.5493 62.311 30.693 62.2273 30.7982 62.1525C30.8166 62.1394 30.8307 62.1211 30.8387 62.1C31.5632 62.1195 32.2862 62.1 33.0092 62.04L33.4547 62.001C34.1707 61.9322 34.8812 61.8266 35.585 61.684C36.4382 61.8589 37.3019 61.9778 38.1707 62.04C38.8922 62.1 39.6167 62.1195 40.3412 62.1C40.3493 62.1185 40.3594 62.1361 40.3712 62.1525C40.4696 62.2225 40.6043 62.3003 40.7375 62.3773C40.8783 62.4587 41.0174 62.5391 41.1107 62.6085C41.1946 63.2645 41.4471 63.8877 41.8435 64.4171C42.2399 64.9465 42.7668 65.3642 43.3727 65.6295C44.4888 66.2242 45.7206 66.5702 46.9832 66.6435C47.7916 66.7552 48.6152 66.6442 49.3652 66.3225C49.3155 66.2182 49.2587 66.1233 49.1998 66.0248C49.1875 66.0042 49.1751 65.9835 49.1627 65.9625C48.4028 64.6385 47.2947 63.548 45.9587 62.8095C44.5141 62.0629 42.8422 61.8847 41.2727 62.31C41.1302 62.2395 40.9922 62.16 40.8572 62.0745C42.5589 61.9751 44.2417 61.6652 45.8672 61.152L46.0502 61.0905C46.5362 60.9345 47.0132 60.765 47.4797 60.5775C47.4886 60.5743 47.4967 60.5716 47.5043 60.5691C47.522 60.5631 47.5365 60.5583 47.5502 60.552C47.5537 60.5538 47.5566 60.5566 47.5585 60.5601C47.5603 60.5636 47.5611 60.5675 47.5607 60.5715C47.731 60.6206 47.9761 60.6705 48.1824 60.7126C48.2596 60.7283 48.3313 60.7429 48.3917 60.756C48.6298 61.3434 49.0275 61.8524 49.54 62.2254C50.0524 62.5984 50.659 62.8205 51.2912 62.8665C52.5429 63.0848 53.827 63.0311 55.0562 62.709C55.8812 62.5665 56.6567 62.211 57.3062 61.6815C57.2227 61.5864 57.1314 61.4986 57.0332 61.419C55.9325 60.4002 54.5639 59.7169 53.0882 59.4495C51.4759 59.1929 49.826 59.5481 48.4622 60.4455C48.3122 60.4155 48.1697 60.381 48.0272 60.3435C50.2016 59.3963 52.2352 58.1541 54.0707 56.652C54.1003 56.6727 54.1351 56.6847 54.1712 56.6866C54.2073 56.6885 54.2431 56.6801 54.2747 56.6625C54.3111 56.6458 54.4847 56.6099 54.655 56.5746C54.8069 56.5432 54.9563 56.5122 55.0037 56.496C55.4684 56.9719 56.0523 57.3145 56.6944 57.4881C57.3365 57.6617 58.0135 57.6599 58.6547 57.483C60.0842 57.1845 62.9957 55.71 63.8267 54.0885L63.4817 53.9505C62.1934 53.4205 60.7716 53.3061 59.4152 53.6235C57.708 54.0323 56.1616 54.941 54.9737 56.2335C54.8533 56.2621 54.7253 56.2803 54.6017 56.2978C54.5698 56.3024 54.5383 56.3069 54.5072 56.3115C55.4558 55.5161 56.3564 54.6651 57.2042 53.763C58.0831 52.8278 58.9127 51.8474 59.6897 50.826C59.7753 50.7149 59.8555 50.5968 59.9345 50.4804C59.958 50.4459 59.9813 50.4115 60.0047 50.3775C60.0697 50.3817 60.134 50.3614 60.1847 50.3205C60.2264 50.2875 60.4075 50.1573 60.5721 50.0391C60.6916 49.9532 60.8024 49.8735 60.8447 49.842C61.3981 50.1368 62.0231 50.2708 62.6488 50.2286C63.2744 50.1865 63.8758 49.9699 64.3847 49.6035C65.5761 48.9155 66.6422 48.0304 67.5377 46.986C68.1626 46.3577 68.641 45.5991 68.9387 44.7645C68.8467 44.7593 68.7653 44.7534 68.6809 44.7473C68.6429 44.7446 68.6042 44.7418 68.5637 44.739C67.0749 44.7501 65.6156 45.1548 64.3337 45.912C62.8113 46.7865 61.5698 48.0769 60.7547 49.632C60.675 49.6756 60.6052 49.7182 60.5361 49.7605C60.4816 49.7938 60.4274 49.8269 60.3692 49.86C61.7502 47.7988 62.8802 45.5801 63.7352 43.251V43.245C63.7704 43.2382 63.8038 43.2243 63.8335 43.2042C63.8631 43.1841 63.8884 43.1582 63.9077 43.128C63.9298 43.1037 63.9964 43.033 64.0763 42.9482C64.2186 42.7971 64.4033 42.601 64.4552 42.5415C65.7122 42.912 66.9707 42.06 67.8212 41.181C68.7881 40.1672 69.6017 39.0175 70.2362 37.7685C70.668 36.9565 70.9788 36.0858 71.1587 35.184C71.0342 35.2065 70.9127 35.2395 70.7927 35.2845C69.291 35.735 67.9318 36.567 66.8477 37.6995C65.6004 38.9996 64.7249 40.6106 64.3127 42.3645C64.2327 42.4435 64.1516 42.5164 64.0732 42.5868C64.0236 42.6314 63.9751 42.6749 63.9287 42.7185C63.928 42.7143 63.9286 42.71 63.9301 42.706C63.9317 42.702 63.9343 42.6986 63.9377 42.696C64.1627 42.0765 64.3637 41.448 64.5677 40.8075C64.5782 40.7687 64.5917 40.7299 64.6053 40.6912C64.6169 40.6579 64.6285 40.6247 64.6382 40.5915C64.8407 39.9195 65.0327 39.2385 65.2157 38.5485C65.449 37.6576 65.6422 36.7567 65.7947 35.8485C65.8457 35.8535 65.8967 35.8382 65.9366 35.806C65.9765 35.7737 66.002 35.727 66.0077 35.676L66.015 35.6646C66.0831 35.5595 66.3847 35.0939 66.4322 34.9845C67.04 34.9036 67.6178 34.6712 68.1124 34.3088C68.607 33.9463 69.0025 33.4653 69.2627 32.91ZM35.585 61.684C35.5544 61.6777 35.5238 61.6714 35.4932 61.665C35.5178 61.5946 35.5501 61.5276 35.5893 61.4651C35.6283 61.5271 35.6605 61.5936 35.6852 61.6635C35.6518 61.6704 35.6184 61.6773 35.585 61.684Z" fill="url(#paint0_linear)"/>
<path d="M21.4018 25C21.9684 25 22.4867 25.085 22.9569 25.2549C23.4271 25.4192 23.8294 25.6543 24.1636 25.9602C24.4979 26.2662 24.7585 26.6344 24.9454 27.065C25.1324 27.4955 25.2258 27.9742 25.2258 28.5011C25.2258 28.9543 25.1579 29.3735 25.0219 29.7588C24.8916 30.144 24.7131 30.5122 24.4865 30.8635C24.2656 31.2147 24.005 31.5546 23.7047 31.8832C23.4045 32.2118 23.0901 32.546 22.7615 32.8859L19.9827 35.7157C20.2546 35.6364 20.5209 35.5769 20.7815 35.5372C21.0478 35.4919 21.2999 35.4693 21.5378 35.4693H24.6905C24.9171 35.4693 25.0955 35.5344 25.2258 35.6647C25.3618 35.7893 25.4298 35.9565 25.4298 36.1661V37.4237H17V36.7269C17 36.5853 17.0283 36.438 17.085 36.285C17.1473 36.1264 17.2436 35.9848 17.3739 35.8601L21.1044 32.1211C21.416 31.8039 21.6936 31.5008 21.9372 31.2119C22.1865 30.9229 22.3933 30.6369 22.5575 30.3536C22.7218 30.0703 22.8465 29.7842 22.9314 29.4953C23.0221 29.2007 23.0674 28.892 23.0674 28.5691C23.0674 28.2745 23.0249 28.0167 22.9399 27.7958C22.855 27.5692 22.7332 27.3794 22.5745 27.2264C22.4216 27.0735 22.2346 26.9602 22.0137 26.8865C21.7984 26.8072 21.5548 26.7675 21.2829 26.7675C21.0336 26.7675 20.8013 26.8044 20.5861 26.878C20.3764 26.946 20.1895 27.0451 20.0252 27.1754C19.8609 27.3001 19.7221 27.4474 19.6088 27.6173C19.4955 27.7873 19.4105 27.9742 19.3539 28.1782C19.2576 28.4388 19.1329 28.6116 18.98 28.6965C18.827 28.7815 18.6061 28.8013 18.3172 28.756L17.2124 28.5606C17.2974 27.9714 17.4617 27.4559 17.7053 27.014C17.9489 26.5664 18.252 26.1954 18.6146 25.9008C18.9828 25.6005 19.402 25.3767 19.8722 25.2294C20.3481 25.0765 20.858 25 21.4018 25Z" fill="url(#paint1_linear)"/>
<path d="M35.6879 31.2799C35.6879 32.3506 35.5718 33.2825 35.3395 34.0756C35.1129 34.8631 34.7957 35.5146 34.3878 36.0301C33.9855 36.5456 33.5068 36.9309 32.9516 37.1858C32.4021 37.4351 31.8073 37.5597 31.1671 37.5597C30.5269 37.5597 29.9321 37.4351 29.3826 37.1858C28.8387 36.9309 28.3657 36.5456 27.9635 36.0301C27.5612 35.5146 27.2468 34.8631 27.0202 34.0756C26.7936 33.2825 26.6803 32.3506 26.6803 31.2799C26.6803 30.2035 26.7936 29.2715 27.0202 28.4841C27.2468 27.6966 27.5612 27.0451 27.9635 26.5296C28.3657 26.0141 28.8387 25.6317 29.3826 25.3824C29.9321 25.1275 30.5269 25 31.1671 25C31.8073 25 32.4021 25.1275 32.9516 25.3824C33.5068 25.6317 33.9855 26.0141 34.3878 26.5296C34.7957 27.0451 35.1129 27.6966 35.3395 28.4841C35.5718 29.2715 35.6879 30.2035 35.6879 31.2799ZM33.521 31.2799C33.521 30.3904 33.4558 29.6539 33.3255 29.0704C33.1952 28.4869 33.0196 28.0224 32.7987 27.6768C32.5834 27.3312 32.3341 27.0905 32.0509 26.9545C31.7676 26.8129 31.473 26.742 31.1671 26.742C30.8669 26.742 30.5751 26.8129 30.2918 26.9545C30.0142 27.0905 29.7678 27.3312 29.5525 27.6768C29.3373 28.0224 29.1645 28.4869 29.0342 29.0704C28.9095 29.6539 28.8472 30.3904 28.8472 31.2799C28.8472 32.1693 28.9095 32.9058 29.0342 33.4893C29.1645 34.0728 29.3373 34.5373 29.5525 34.8829C29.7678 35.2285 30.0142 35.4721 30.2918 35.6137C30.5751 35.7497 30.8669 35.8177 31.1671 35.8177C31.473 35.8177 31.7676 35.7497 32.0509 35.6137C32.3341 35.4721 32.5834 35.2285 32.7987 34.8829C33.0196 34.5373 33.1952 34.0728 33.3255 33.4893C33.4558 32.9058 33.521 32.1693 33.521 31.2799Z" fill="url(#paint2_linear)"/>
<path d="M38.1536 35.8517H40.6434V28.688C40.6434 28.4104 40.6519 28.1187 40.6689 27.8128L38.9014 29.2914C38.7994 29.3707 38.6975 29.4217 38.5955 29.4443C38.4992 29.4613 38.4057 29.4613 38.3151 29.4443C38.2301 29.4273 38.1536 29.399 38.0856 29.3594C38.0176 29.314 37.9667 29.2659 37.9327 29.2149L37.2698 28.3056L41.0174 25.119H42.7424V35.8517H44.9518V37.4237H38.1536V35.8517Z" fill="url(#paint3_linear)"/>
<path d="M51.6494 32.6565C51.7457 32.5375 51.8363 32.4214 51.9213 32.3081C52.0063 32.1948 52.0884 32.0815 52.1678 31.9682C51.8845 32.1495 51.5729 32.2883 51.233 32.3846C50.8931 32.4752 50.5362 32.5205 50.1623 32.5205C49.7374 32.5205 49.321 32.4469 48.9131 32.2996C48.5052 32.1523 48.1426 31.9313 47.8254 31.6368C47.5081 31.3365 47.2504 30.9683 47.0521 30.532C46.8595 30.0902 46.7632 29.5746 46.7632 28.9855C46.7632 28.4359 46.8651 27.9204 47.0691 27.4389C47.273 26.9573 47.5591 26.5353 47.9274 26.1727C48.2956 25.8101 48.7375 25.524 49.253 25.3144C49.7686 25.1048 50.3379 25 50.9611 25C51.5899 25 52.1536 25.0991 52.6521 25.2974C53.1563 25.4957 53.584 25.7733 53.9353 26.1302C54.2922 26.4871 54.5641 26.9148 54.7511 27.4134C54.9437 27.9119 55.04 28.4586 55.04 29.0534C55.04 29.433 55.006 29.7927 54.938 30.1327C54.8757 30.4726 54.7851 30.8011 54.6661 31.1184C54.5471 31.43 54.4027 31.7359 54.2327 32.0362C54.0628 32.3364 53.873 32.6338 53.6634 32.9284L50.8506 36.9394C50.7543 37.0753 50.6098 37.1915 50.4172 37.2878C50.2246 37.3784 50.0065 37.4237 49.7629 37.4237H47.8339L51.6494 32.6565ZM53.0345 28.841C53.0345 28.5067 52.9835 28.2093 52.8816 27.9487C52.7796 27.6825 52.6351 27.4587 52.4482 27.2774C52.2612 27.0961 52.0375 26.9573 51.7769 26.861C51.5219 26.7647 51.2415 26.7165 50.9356 26.7165C50.6183 26.7165 50.3322 26.7704 50.0773 26.878C49.8224 26.98 49.6043 27.1244 49.423 27.3114C49.2417 27.4983 49.1029 27.7221 49.0066 27.9827C48.9103 28.2376 48.8621 28.5181 48.8621 28.824C48.8621 29.5095 49.0377 30.0335 49.389 30.3961C49.7459 30.753 50.2501 30.9314 50.9016 30.9314C51.2415 30.9314 51.5446 30.8776 51.8108 30.77C52.0771 30.6623 52.3009 30.5151 52.4822 30.3281C52.6635 30.1411 52.7994 29.9202 52.8901 29.6653C52.9864 29.4103 53.0345 29.1356 53.0345 28.841Z" fill="url(#paint4_linear)"/>
<defs>
<linearGradient id="paint0_linear" x1="35.5854" y1="7.43097" x2="35.5854" y2="66.6857" gradientUnits="userSpaceOnUse">
<stop stop-color="#FFC700"/>
<stop offset="1" stop-color="#FF8A00"/>
</linearGradient>
<linearGradient id="paint1_linear" x1="36.6823" y1="20.4859" x2="36.6823" y2="45.1234" gradientUnits="userSpaceOnUse">
<stop stop-color="#FFC700"/>
<stop offset="1" stop-color="#FF8A00"/>
</linearGradient>
<linearGradient id="paint2_linear" x1="36.6823" y1="20.4859" x2="36.6823" y2="45.1234" gradientUnits="userSpaceOnUse">
<stop stop-color="#FFC700"/>
<stop offset="1" stop-color="#FF8A00"/>
</linearGradient>
<linearGradient id="paint3_linear" x1="36.6823" y1="20.4859" x2="36.6823" y2="45.1234" gradientUnits="userSpaceOnUse">
<stop stop-color="#FFC700"/>
<stop offset="1" stop-color="#FF8A00"/>
</linearGradient>
<linearGradient id="paint4_linear" x1="36.6823" y1="20.4859" x2="36.6823" y2="45.1234" gradientUnits="userSpaceOnUse">
<stop stop-color="#FFC700"/>
<stop offset="1" stop-color="#FF8A00"/>
</linearGradient>
</defs>
</svg>
