<svg width="135" height="40" viewBox="0 0 135 40" fill="none" xmlns="http://www.w3.org/2000/svg">
<path fill-rule="evenodd" clip-rule="evenodd" d="M30.1284 19.7822C30.0994 16.5592 32.7674 14.9912 32.8894 14.9182C31.3784 12.7152 29.0364 12.4132 28.2134 12.3902C26.2464 12.1832 24.3394 13.5672 23.3364 13.5672C22.3144 13.5672 20.7714 12.4102 19.1094 12.4452C16.9694 12.4782 14.9664 13.7172 13.8684 15.6402C11.6034 19.5632 13.2934 25.3282 15.4634 28.4992C16.5494 30.0522 17.8184 31.7862 19.4794 31.7252C21.1044 31.6582 21.7114 30.6892 23.6724 30.6892C25.6154 30.6892 26.1854 31.7252 27.8794 31.6862C29.6234 31.6582 30.7214 30.1262 31.7694 28.5592C33.0244 26.7792 33.5284 25.0262 33.5484 24.9362C33.5074 24.9222 30.1614 23.6462 30.1284 19.7822Z" fill="white"/>
<path fill-rule="evenodd" clip-rule="evenodd" d="M26.928 10.3048C27.802 9.21182 28.4 7.72482 28.234 6.21582C26.969 6.27182 25.386 7.08982 24.476 8.15982C23.67 9.10182 22.95 10.6458 23.136 12.0978C24.557 12.2028 26.016 11.3808 26.928 10.3048Z" fill="white"/>
<path fill-rule="evenodd" clip-rule="evenodd" d="M49.7561 25.9537L48.6311 22.4787C48.5121 22.1237 48.2881 21.2877 47.9591 19.9717H47.9191C47.7881 20.5387 47.5771 21.3737 47.2881 22.4787L46.1821 25.9537H49.7561ZM53.6461 31.5033H51.3751L50.1311 27.5943H45.8071L44.6221 31.5033H42.4111L46.6951 18.1953H49.3411L53.6461 31.5033Z" fill="white"/>
<path fill-rule="evenodd" clip-rule="evenodd" d="M62.4908 26.6642C62.4908 25.7302 62.2808 24.9602 61.8588 24.3542C61.3978 23.7232 60.7798 23.4062 60.0028 23.4062C59.4768 23.4062 58.9988 23.5822 58.5718 23.9302C58.1438 24.2792 57.8638 24.7362 57.7328 25.3032C57.6668 25.5662 57.6338 25.7832 57.6338 25.9532V27.5532C57.6338 28.2512 57.8478 28.8403 58.2758 29.3203C58.7028 29.8013 59.2598 30.0413 59.9438 30.0413C60.7468 30.0413 61.3718 29.7312 61.8198 29.1132C62.2668 28.4942 62.4908 27.6782 62.4908 26.6642ZM64.6629 26.586C64.6629 28.218 64.2219 29.508 63.3399 30.455C62.5499 31.298 61.5699 31.719 60.3979 31.719C59.1349 31.719 58.2259 31.265 57.6739 30.356H57.6339V35.411H55.5019V25.065C55.5019 24.039 55.4749 22.986 55.4229 21.906H57.2979L57.4169 23.427H57.4559C58.1669 22.281 59.2459 21.709 60.6939 21.709C61.8259 21.709 62.7709 22.156 63.5279 23.051C64.2849 23.947 64.6629 25.125 64.6629 26.586Z" fill="white"/>
<path fill-rule="evenodd" clip-rule="evenodd" d="M73.5279 26.6642C73.5279 25.7302 73.3169 24.9602 72.8949 24.3542C72.4339 23.7232 71.8169 23.4062 71.0399 23.4062C70.5119 23.4062 70.0359 23.5822 69.6079 23.9302C69.1799 24.2792 68.9019 24.7362 68.7699 25.3032C68.7039 25.5662 68.6709 25.7832 68.6709 25.9532V27.5532C68.6709 28.2512 68.8849 28.8403 69.3109 29.3203C69.7389 29.8013 70.2959 30.0413 70.9809 30.0413C71.7839 30.0413 72.4089 29.7312 72.8559 29.1132C73.3029 28.4942 73.5279 27.6782 73.5279 26.6642ZM75.7 26.586C75.7 28.218 75.258 29.508 74.376 30.455C73.587 31.298 72.606 31.719 71.434 31.719C70.171 31.719 69.262 31.265 68.71 30.356H68.671V35.411H66.539V25.065C66.539 24.039 66.512 22.986 66.46 21.906H68.335L68.454 23.427H68.493C69.204 22.281 70.282 21.709 71.731 21.709C72.862 21.709 73.807 22.156 74.565 23.051C75.321 23.947 75.7 25.125 75.7 26.586Z" fill="white"/>
<path fill-rule="evenodd" clip-rule="evenodd" d="M88.0392 27.7711C88.0392 28.9031 87.6462 29.8241 86.8572 30.5351C85.9902 31.3121 84.7832 31.7001 83.2322 31.7001C81.8012 31.7001 80.6522 31.4231 79.7832 30.8711L80.2772 29.0931C81.2132 29.6601 82.2402 29.9431 83.3592 29.9431C84.1622 29.9431 84.7872 29.7611 85.2362 29.3991C85.6842 29.0371 85.9062 28.5511 85.9062 27.9451C85.9062 27.4051 85.7232 26.9501 85.3532 26.5801C84.9862 26.2111 84.3732 25.8691 83.5182 25.5511C81.1872 24.6821 80.0232 23.4101 80.0232 21.7351C80.0232 20.6411 80.4322 19.7441 81.2482 19.0451C82.0622 18.3471 83.1482 17.9971 84.5062 17.9971C85.7172 17.9971 86.7232 18.2081 87.5252 18.6291L86.9922 20.3671C86.2422 19.9591 85.3942 19.7541 84.4452 19.7541C83.6952 19.7541 83.1092 19.9391 82.6892 20.3081C82.3342 20.6371 82.1562 21.0381 82.1562 21.5121C82.1562 22.0381 82.3592 22.4731 82.7682 22.8151C83.1232 23.1311 83.7682 23.4731 84.7032 23.8421C85.8482 24.3031 86.6892 24.8421 87.2302 25.4601C87.7692 26.0801 88.0392 26.8501 88.0392 27.7711Z" fill="white"/>
<path fill-rule="evenodd" clip-rule="evenodd" d="M95.0881 23.5061H92.7381V28.1651C92.7381 29.3501 93.1521 29.9431 93.9831 29.9431C94.3631 29.9431 94.6801 29.9091 94.9301 29.8441L94.9881 31.4631C94.5681 31.6201 94.0161 31.6991 93.3301 31.6991C92.4881 31.6991 91.8301 31.4431 91.3561 30.9301C90.8831 30.4161 90.6451 29.5541 90.6451 28.3431V23.5061H89.2441V21.9061H90.6451V20.1491L92.7381 19.5171V21.9061H95.0881V23.5061Z" fill="white"/>
<path fill-rule="evenodd" clip-rule="evenodd" d="M103.479 26.6955C103.479 25.8105 103.29 25.0515 102.907 24.4185C102.46 23.6525 101.821 23.2695 100.993 23.2695C100.135 23.2695 99.4848 23.6525 99.0378 24.4185C98.6548 25.0515 98.4648 25.8235 98.4648 26.7355C98.4648 27.6205 98.6548 28.3795 99.0378 29.0115C99.4988 29.7775 100.143 30.1605 100.973 30.1605C101.788 30.1605 102.426 29.7705 102.887 28.9925C103.282 28.3455 103.479 27.5795 103.479 26.6955ZM105.692 26.626C105.692 28.1 105.27 29.311 104.428 30.258C103.545 31.233 102.374 31.719 100.913 31.719C99.504 31.719 98.383 31.253 97.547 30.318C96.711 29.383 96.293 28.205 96.293 26.784C96.293 25.297 96.723 24.079 97.586 23.131C98.448 22.183 99.61 21.71 101.071 21.71C102.479 21.71 103.612 22.176 104.467 23.112C105.284 24.02 105.692 25.191 105.692 26.626Z" fill="white"/>
<path fill-rule="evenodd" clip-rule="evenodd" d="M112.621 23.782C112.41 23.743 112.185 23.723 111.949 23.723C111.199 23.723 110.619 24.007 110.211 24.573C109.855 25.073 109.678 25.705 109.678 26.468V31.503H107.547L107.566 24.928C107.566 23.822 107.539 22.815 107.486 21.907H109.344L109.422 23.743H109.48C109.705 23.112 110.06 22.604 110.547 22.223C111.021 21.881 111.535 21.71 112.088 21.71C112.285 21.71 112.463 21.723 112.621 21.749V23.782Z" fill="white"/>
<path fill-rule="evenodd" clip-rule="evenodd" d="M120.123 25.6979C120.137 25.0659 119.998 24.5199 119.709 24.0589C119.34 23.4669 118.773 23.1709 118.01 23.1709C117.312 23.1709 116.746 23.4599 116.312 24.0399C115.957 24.5009 115.746 25.0529 115.682 25.6979H120.123ZM122.156 26.2505C122.156 26.6325 122.131 26.9545 122.078 27.2175H115.682C115.707 28.1655 116.016 28.8895 116.609 29.3895C117.148 29.8375 117.846 30.0605 118.701 30.0605C119.648 30.0605 120.512 29.9095 121.289 29.6065L121.623 31.0875C120.715 31.4825 119.643 31.6795 118.406 31.6795C116.918 31.6795 115.75 31.2425 114.9 30.3665C114.053 29.4915 113.627 28.3165 113.627 26.8425C113.627 25.3945 114.021 24.1895 114.812 23.2285C115.641 22.2025 116.76 21.6895 118.168 21.6895C119.551 21.6895 120.598 22.2025 121.309 23.2285C121.873 24.0455 122.156 25.0525 122.156 26.2505Z" fill="white"/>
<path fill-rule="evenodd" clip-rule="evenodd" d="M48.6936 13.1689C48.4036 13.3189 47.7636 13.4689 46.9546 13.4689C44.8156 13.4689 43.5156 12.1289 43.5156 10.0809C43.5156 7.86195 45.0546 6.52295 47.1146 6.52295C47.9236 6.52295 48.5036 6.69195 48.7536 6.82195L48.4836 7.80195C48.1636 7.66195 47.7236 7.54195 47.1646 7.54195C45.7956 7.54195 44.8046 8.40095 44.8046 10.0209C44.8046 11.4999 45.6746 12.4489 47.1546 12.4489C47.6536 12.4489 48.1726 12.3489 48.4936 12.1989L48.6936 13.1689Z" fill="white"/>
<path fill-rule="evenodd" clip-rule="evenodd" d="M51.2563 8.50146V10.5205H51.4363L52.9353 8.50146H54.3953L52.4553 10.6405C53.1253 10.7405 53.5343 11.2705 53.8643 12.0495C54.0153 12.4095 54.1943 12.9485 54.4143 13.3685H53.1353C53.0053 13.1585 52.8653 12.7985 52.6863 12.3295C52.4253 11.6695 52.0563 11.3495 51.4163 11.3495H51.2563V13.3685H50.0273V8.50146H51.2563Z" fill="white"/>
<path fill-rule="evenodd" clip-rule="evenodd" d="M58.1472 10.9892C57.2772 10.9692 56.4482 11.1592 56.4482 11.8992C56.4482 12.3792 56.7572 12.5982 57.1472 12.5982C57.6372 12.5982 57.9972 12.2792 58.1072 11.9292C58.1362 11.8392 58.1472 11.7392 58.1472 11.6592V10.9892ZM58.3065 13.3681L58.2275 12.8281H58.1975C57.8975 13.2081 57.3875 13.4781 56.7575 13.4781C55.7785 13.4781 55.2285 12.7681 55.2285 12.0291C55.2285 10.8001 56.3185 10.1791 58.1175 10.1901V10.1101C58.1175 9.79011 57.9875 9.26011 57.1275 9.26011C56.6485 9.26011 56.1485 9.41011 55.8185 9.62011L55.5785 8.82111C55.9385 8.60011 56.5685 8.39111 57.3375 8.39111C58.8965 8.39111 59.3465 9.38011 59.3465 10.4401V12.1981C59.3465 12.6381 59.3665 13.0681 59.4165 13.3681H58.3065Z" fill="white"/>
<path fill-rule="evenodd" clip-rule="evenodd" d="M62.0337 8.50146V10.0305C62.0337 10.6105 62.2437 10.9505 62.8837 10.9505C63.1927 10.9505 63.5127 10.8305 63.7127 10.6805V8.50146H64.9417V13.3685H63.7127V11.4995H63.6927C63.3827 11.6995 62.8837 11.8295 62.4237 11.8295C61.4337 11.8295 60.8047 11.2905 60.8047 10.1605V8.50146H62.0337Z" fill="white"/>
<path fill-rule="evenodd" clip-rule="evenodd" d="M69.2713 10.9892C68.4023 10.9692 67.5723 11.1592 67.5723 11.8992C67.5723 12.3792 67.8823 12.5982 68.2723 12.5982C68.7613 12.5982 69.1223 12.2792 69.2313 11.9292C69.2613 11.8392 69.2713 11.7392 69.2713 11.6592V10.9892ZM69.4315 13.3681L69.3515 12.8281H69.3215C69.0215 13.2081 68.5115 13.4781 67.8825 13.4781C66.9035 13.4781 66.3535 12.7681 66.3535 12.0291C66.3535 10.8001 67.4425 10.1791 69.2415 10.1901V10.1101C69.2415 9.79011 69.1115 9.26011 68.2515 9.26011C67.7725 9.26011 67.2725 9.41011 66.9435 9.62011L66.7035 8.82111C67.0625 8.60011 67.6925 8.39111 68.4615 8.39111C70.0215 8.39111 70.4705 9.38011 70.4705 10.4401V12.1981C70.4705 12.6381 70.4915 13.0681 70.5415 13.3681H69.4315Z" fill="white"/>
<path fill-rule="evenodd" clip-rule="evenodd" d="M75.77 8.50146V9.45046H74.311V13.3685H73.082V9.45046H71.623V8.50146H75.77Z" fill="white"/>
<path fill-rule="evenodd" clip-rule="evenodd" d="M78.1982 12.5396C78.3582 12.5596 78.5182 12.5796 78.7672 12.5796C79.3382 12.5796 80.0572 12.3896 80.0572 11.7006C80.0572 10.9906 79.2982 10.8306 78.7482 10.8306C78.5382 10.8306 78.3682 10.8506 78.1982 10.8806V12.5396ZM78.2085 8.50146V10.0405C78.4085 10.0005 78.7285 9.98046 78.9885 9.98046C80.1075 9.98046 81.2875 10.3605 81.2875 11.6495C81.2875 12.2195 81.0475 12.6095 80.6865 12.8695C80.1075 13.3095 79.1875 13.4185 78.4585 13.4185C77.9385 13.4185 77.4195 13.3895 76.9785 13.3495V8.50146H78.2085Z" fill="white"/>
<path fill-rule="evenodd" clip-rule="evenodd" d="M86.3087 8.50146V10.2505C86.3087 11.0205 86.2787 11.5395 86.2387 12.2195H86.2687C86.5287 11.6495 86.6787 11.2905 86.9277 10.7805L88.1277 8.50146H89.6167V13.3685H88.4477V11.6295C88.4477 10.8505 88.4777 10.4905 88.5277 9.57046H88.4877C88.2467 10.1505 88.0877 10.5005 87.8477 10.9695C87.4677 11.6895 87.0287 12.5695 86.6087 13.3685H85.1387V8.50146H86.3087Z" fill="white"/>
<path fill-rule="evenodd" clip-rule="evenodd" d="M91.7789 10.4704H92.3689C93.0389 10.4704 93.4279 10.2004 93.4279 9.85037C93.4279 9.50137 93.0979 9.26137 92.5489 9.26137C92.1389 9.26137 91.6889 9.40137 91.3489 9.61137L91.0899 8.88137C91.6199 8.55137 92.2789 8.40137 92.9089 8.40137C93.7279 8.40137 94.7269 8.72137 94.7269 9.69037C94.7269 10.3204 94.1679 10.6704 93.6579 10.7904V10.8104C94.3079 10.8804 94.9479 11.2704 94.9479 11.9894C94.9479 13.1184 93.6779 13.4694 92.6779 13.4694C92.0389 13.4694 91.3989 13.3084 90.9199 13.0294L91.1999 12.2494C91.5399 12.4294 92.0589 12.5794 92.5489 12.5794C93.2279 12.5794 93.5979 12.2994 93.5979 11.9194C93.5979 11.4094 93.0689 11.2504 92.3789 11.2504H91.7789V10.4704Z" fill="white"/>
</svg>
