<svg width="24" height="24" viewBox="0 0 24 24" fill="none" xmlns="http://www.w3.org/2000/svg">
<path d="M1 6.5C1 5.65945 1.69263 5 2.3999 5H19.6001C20.3074 5 21 5.65945 21 6.5V8C21 8.27615 21.2239 8.5 21.5 8.5C21.7761 8.5 22 8.27615 22 8V6.5C22 5.14053 20.8926 4 19.6001 4H2.3999C1.10742 4 0 5.14053 0 6.5V17.5C0 18.8419 0.990723 20 2.3999 20H19.6001C20.8926 20 22 18.8595 22 17.5V15.5C22 15.2238 21.7761 15 21.5 15C21.2239 15 21 15.2238 21 15.5V17.5C21 18.3405 20.3074 19 19.6001 19H2.3999C1.60913 19 1 18.3581 1 17.5V6.5Z" fill="#4C9900"/>
<path d="M11.5 13C11.2239 13 11 13.2238 11 13.5C11 13.7762 11.2239 14 11.5 14H12.5C12.7761 14 13 13.7762 13 13.5C13 13.2238 12.7761 13 12.5 13H11.5Z" fill="#4C9900"/>
<path fill-rule="evenodd" clip-rule="evenodd" d="M5 7C3.89551 7 3 7.89542 3 9C3 10.1046 3.89551 11 5 11C6.10449 11 7 10.1046 7 9C7 7.89542 6.10449 7 5 7ZM4 9C4 8.44772 4.44775 8 5 8C5.55225 8 6 8.44772 6 9C6 9.55228 5.55225 10 5 10C4.44775 10 4 9.55228 4 9Z" fill="#4C9900"/>
<path d="M3 13.5C3 13.2238 3.22388 13 3.5 13H5.5C5.77612 13 6 13.2238 6 13.5C6 13.7762 5.77612 14 5.5 14H3.5C3.22388 14 3 13.7762 3 13.5Z" fill="#4C9900"/>
<path d="M7 13.5C7 13.2238 7.22388 13 7.5 13H9.5C9.77612 13 10 13.2238 10 13.5C10 13.7762 9.77612 14 9.5 14H7.5C7.22388 14 7 13.7762 7 13.5Z" fill="#4C9900"/>
<path d="M3.02319 16.5C3.02319 16.2367 3.23657 16.0233 3.5 16.0233H10.5C10.7632 16.0233 10.9768 16.2367 10.9768 16.5C10.9768 16.7633 10.7632 16.9767 10.5 16.9767H3.5C3.23657 16.9767 3.02319 16.7633 3.02319 16.5Z" fill="#4C9900"/>
<path fill-rule="evenodd" clip-rule="evenodd" d="M23.8536 9.64645C24.0488 9.84171 24.0488 10.1583 23.8536 10.3536L18.3536 15.8536C18.1583 16.0488 17.8417 16.0488 17.6464 15.8536L14.6464 12.8536C14.4512 12.6583 14.4512 12.3417 14.6464 12.1464C14.8417 11.9512 15.1583 11.9512 15.3536 12.1464L18 14.7929L23.1464 9.64645C23.3417 9.45118 23.6583 9.45118 23.8536 9.64645Z" fill="#FFAD00"/>
</svg>
