<svg
xmlns="http://www.w3.org/2000/svg"
xmlns:xlink="http://www.w3.org/1999/xlink"
width="150"
height="1050"
viewBox="0 0 150 1050">
  <defs>
    <symbol id="category-courier">
      <path d="M32.9604,17.541 C30.7584,17.541 28.9754,15.758 28.9754,13.557 C28.9754,11.356 30.7584,9.572 32.9604,9.572 C35.1604,9.572 36.9444,11.356 36.9444,13.557 C36.9444,15.758 35.1604,17.541 32.9604,17.541 M39.9764,19.258 L39.9874,19.268 L39.9424,19.32 C39.8664,19.434 39.7764,19.535 39.6764,19.63 L35.6064,24.368 L35.6044,24.366 C35.2684,24.779 34.7644,25.051 34.1924,25.051 C33.7414,25.051 33.3354,24.881 33.0164,24.608 L33.0014,24.629 L30.6034,22.577 L27.3564,26.685 L29.0834,28.525 C29.0994,28.54 29.1124,28.556 29.1274,28.571 L29.2484,28.701 L29.2384,28.707 C29.4844,29.019 29.6364,29.406 29.6364,29.834 C29.6364,30.367 29.4054,30.844 29.0414,31.179 L24.9814,36.631 C24.6724,37.155 24.1064,37.512 23.4544,37.512 C22.4714,37.512 21.6744,36.716 21.6744,35.732 C21.6744,35.31 21.8284,34.925 22.0754,34.62 L25.4304,30.115 L23.8234,28.687 C21.4264,31.927 15.6484,39.57 15.6484,39.57 C15.3354,40.082 14.7764,40.428 14.1334,40.428 C13.1514,40.428 12.3554,39.632 12.3554,38.649 C12.3554,38.164 12.5504,37.725 12.8674,37.403 L12.8634,37.399 L20.7574,26.642 L12.3214,19.798 L18.5024,12.176 L21.8784,14.916 L23.0014,13.617 L23.0044,13.62 C23.3344,13.296 23.7874,13.093 24.2874,13.093 C24.7394,13.093 25.1474,13.263 25.4664,13.534 L25.4714,13.528 L33.9894,20.817 L36.9524,17.368 C37.0384,17.233 37.1434,17.115 37.2604,17.01 L37.3024,16.961 L37.3114,16.968 C37.6214,16.707 38.0174,16.544 38.4544,16.544 C39.4424,16.544 40.2424,17.344 40.2424,18.331 C40.2424,18.672 40.1414,18.987 39.9764,19.258" />
    </symbol>
    <symbol id="category-clerical">
      <path d="M34.0908,23.207 C33.1748,23.207 31.8288,23.144 31.0738,22.858 L23.0038,31.365 C23.2348,32.054 23.2688,33.328 23.2688,34.149 C23.2688,38.214 19.9748,41.507 15.9108,41.507 C15.2998,41.507 14.7088,41.425 14.1408,41.284 L18.4378,36.823 L17.3768,32.861 L13.4138,31.799 L8.9268,36.456 C8.6868,35.729 8.5528,34.955 8.5528,34.149 C8.5528,30.085 11.8478,26.791 15.9108,26.791 C16.8568,26.791 18.2248,26.863 19.0008,27.166 L27.0248,18.704 C26.7788,17.996 26.7338,16.699 26.7338,15.851 C26.7338,11.787 30.0278,8.493 34.0908,8.493 C34.7028,8.493 35.2938,8.576 35.8628,8.718 L31.5648,13.178 L32.6268,17.141 L36.5908,18.202 L41.0738,13.548 C41.3138,14.272 41.4468,15.046 41.4468,15.851 C41.4468,19.913 38.1538,23.207 34.0908,23.207" />
    </symbol>
    <symbol id="category-trucking">
      <path d="M31.875,29.6016 C33.314,29.6016 34.483,30.7686 34.483,32.2086 C34.483,33.6496 33.314,34.8166 31.875,34.8166 C30.435,34.8166 29.268,33.6496 29.268,32.2086 C29.268,30.7686 30.435,29.6016 31.875,29.6016 M13.331,29.6016 C14.771,29.6016 15.938,30.7686 15.938,32.2086 C15.938,33.6496 14.771,34.8166 13.331,34.8166 C11.89,34.8166 10.723,33.6496 10.723,32.2086 C10.723,30.7686 11.89,29.6016 13.331,29.6016 M39.285,31.8706 L35.824,31.8706 C35.621,29.8686 33.929,28.2386 31.873,28.2386 C29.817,28.2386 28.125,29.8716 27.922,31.8746 C24.376,31.8756 20.581,31.8776 17.28,31.8786 C17.079,29.8726 15.388,28.2386 13.33,28.2386 C11.269,28.2386 9.577,29.8066 9.377,31.8136 L9.374,31.8136 C8.825,31.8136 8.313,31.3356 8.313,30.6916 C8.312,30.0096 8.331,29.0686 8.331,28.3946 C8.331,27.6076 8.467,26.6516 9.01,26.1546 C10.42,24.7476 12.957,22.1376 14.106,21.0616 C14.563,20.6896 14.998,20.6666 15.42,20.6556 L19.086,20.6556 C19.452,20.6556 19.871,21.0466 19.871,21.4436 L19.871,27.3146 C19.871,27.5556 19.945,27.9136 20.325,27.9136 C20.771,27.9136 20.831,27.6426 20.831,27.3786 L20.831,15.9976 C20.831,15.6726 21.247,15.1836 21.626,15.1836 L39.416,15.1836 C39.833,15.1836 40.405,15.4736 40.405,16.1176 L40.405,30.4776 C40.418,31.1276 39.941,31.8706 39.285,31.8706" />
    </symbol>
    <symbol id="category-house">
      <path d="M29.6992,34.8623 L26.8272,42.8883 L7.2322,27.5673 L13.6352,22.5743 L29.6992,34.8623 Z M37.1832,12.7123 L37.1952,12.7223 L25.2202,27.9443 L33.3992,34.2213 L32.2772,35.6823 L12.4712,20.4823 L13.5942,19.0213 L22.3002,25.7033 L34.3572,10.3773 L34.3662,10.3833 C34.7022,9.9553 35.2182,9.6753 35.8042,9.6753 C36.8182,9.6753 37.6392,10.4983 37.6392,11.5103 C37.6392,11.9723 37.4642,12.3883 37.1832,12.7123 L37.1832,12.7123 Z" />
    </symbol>
    <symbol id="category-virtual-assistant">
      <path d="M13.02 39.2s.88-4.88 1.5-5.7c.5-.6.55-1.76 4.5-2.35 3.6-.47 3-2.83 3.03-2.95 0-.3 0-.48 0-.48s-2-2.2-2.6-3.94c-.75-.08-1.16-.26-1.4-1.45 0 0-.22-2.68.64-2.62 0 0 .9 0 .78-.6-.05-1.03 0-3.02.07-3.7.07-.68.7-1.98 1.87-2.87 1.94-1.5 4.1-1.77 4.5-1.74 1.37.1 3.1.66 3.1.66-.3.4-1.63 1.14-1.15 1.2.48.08.63.2 1.6.38 1.45.27 1.25 2.22 1.3 2.9.08.7.16 2.67.02 3.3-.15.6.28.54.28.54 1.03 0 .9 2.62.9 2.62-.16.7-.48.78-1.43 1.38-.6 1.73-2.6 3.94-2.6 3.94s0 .17 0 .48c.03.12-.57 2.48 3.03 2.95 3.95.6 4 1.75 4.5 2.36.62.82 1.5 5.7 1.5 5.7H13.02z"/>
    </symbol>
    <symbol id="category-computer-help">
      <path d="M12.87 31h24.28V15.12H12.87V31zm24.35 2.56H31l-.02 2.48c0 .6-.5 1.1-1.1 1.1h-9.45c-.6 0-1.1-.5-1.1-1.1v-2.48h-6.55c-1.2 0-2.2-.98-2.2-2.2v-16.3c0-1.22 1-2.2 2.2-2.2h24.44c1.2 0 2.2.98 2.2 2.2v16.3c0 1.22-1 2.2-2.2 2.2z" />
    </symbol>
    <symbol id="category-promo">
      <path d="M22.47 9.12c-.56-.72-1.98.38-3.17 2.47-1.2 2.07-1.7 4.36-1.15 5.08.2.28.55.3.95.1.58-2.62 1.85-4.95 3.6-6.75 0-.4-.07-.7-.23-.9m2.8 20.92l1.13 2-.2.02c1.63 2.62.72 6.6.4 7.62-.32.97-.63 3.06 1.17 4.68-.45 0-.72.04-.92.07-1.55-1.8-1.27-3.78-.95-4.77.33-1.02 1.34-4.56-.58-7.58H22.9s.82-1.24 1.2-2.07c-2.67-.75-8.78-4.92-8.78-11.87 0-6.58 4.54-12.6 9.74-12.6s9.62 6.02 9.62 12.6c0 9.23-7.18 11.54-9.4 11.9"/>
    </symbol>
     <symbol id="category-design">
      <path d="M25.72 32.02c-1.12 2.75-2.63 6.3-4.83 10.44 0 0-2.14.04-3.95-1-1.8-1.06-3.3-3.2-3.3-3.2 2.9-3.86 5.58-6.93 7.57-9.1 0 0 .7.96 1.77 1.65 1.15.75 2.72 1.22 2.72 1.22M35.1 7.54h.38c.34.88.68 2.44.8 5.23.36 7.58-1.06 12.13-9.1 17.24 0 0-1.9.17-3.12-.53-1.13-.64-1.6-2.14-1.6-2.14.86-4.35.42-8.46 7.16-11.9 5.03-3.25 5.62-6.3 5.47-7.9"/>
    </symbol>
     <symbol id="category-web-development">
      <path d="M22.97 22.63c-2.94-1.24-6.34.13-7.6 3.08-1.23 2.95.14 6.35 3.1 7.6 2.94 1.25 6.33-.13 7.58-3.08 1.25-2.94-.13-6.34-3.08-7.6zm7.24 1.1l2.58.36.56 4.88-2.4.9c-.15.72-.36 1.43-.65 2.13-.34.78-.75 1.5-1.22 2.13l.96 2.38-3.98 2.9-1.96-1.62c-1.4.5-2.9.67-4.4.52l-1.53 2.02-4.54-1.92.4-2.5c-1.24-1.03-2.2-2.33-2.82-3.77l-2.5-.34-.57-4.9 2.4-.9c.12-.7.33-1.4.62-2.1.33-.77.75-1.5 1.24-2.15l-.96-2.38 3.98-2.9 2 1.65c1.36-.47 2.83-.65 4.3-.5l1.58-2.07 4.54 1.92-.4 2.57c1.2 1.02 2.14 2.3 2.77 3.7zm6.98-9.5c-1.28-1.2-3.3-1.15-4.5.12-1.2 1.28-1.16 3.3.12 4.5 1.28 1.22 3.3 1.16 4.5-.1 1.2-1.3 1.16-3.3-.12-4.52zm4.7 2.64l-.66 2.6h-1.4c-.2.34-.45.66-.73.96-.32.33-.67.6-1.03.85l.03 1.4-2.58.7-.68-1.2c-.8 0-1.6-.2-2.34-.57l-1.17.75-1.94-1.84.66-1.2c-.43-.75-.66-1.6-.7-2.45l-1.23-.65.65-2.6h1.4c.2-.33.43-.65.7-.94.33-.34.68-.63 1.06-.87l-.04-1.4 2.58-.72.7 1.22c.8.03 1.57.22 2.3.57l1.2-.75 1.93 1.84-.68 1.23c.42.74.66 1.57.7 2.4l1.25.67z"/>
    </symbol>
    <symbol id="category-photo-shop">
      <path d="M24.98 16.8c-5.02 0-9.1 4.07-9.1 9.1 0 5.02 4.08 9.1 9.1 9.1s9.1-4.08 9.1-9.1c0-5.03-4.08-9.1-9.1-9.1m13.5 20.1H11.52c-1.24 0-2.24-1-2.24-2.24V17.8c0-1.23 1-2.23 2.24-2.23h6v-1.52c0-1.23.86-2.23 1.92-2.23h11.13c1.05 0 1.9 1 1.9 2.23v1.52h6c1.25 0 2.25 1 2.25 2.24v16.86c0 1.24-1 2.24-2.24 2.24"/>
    </symbol>
     <symbol id="category-tech-repair">
      <path d="M35.8 18.96v2.8l-2.86 1.6s-.07 10.24-7.05 11.1c.7 2.3 2.86 3.97 5.4 3.97.06 0 .06.07.05.15.6.03 1.07.5 1.07 1.12 0 .62-.5 1.13-1.12 1.13-.25 0-.46-.1-.64-.23-3.5-.28-6.33-2.84-7.06-6.18-.13-.03-.28-.04-.4-.07-6.6-1.44-6.23-11-6.23-11l-2.77-1.6v-2.8h5.02V10.6h.02c.03-.8.4-1.43 1.2-1.43.83 0 1.28.65 1.28 1.46 0 .04 0 .07 0 .1v8.23h6.57V10.6h.02c.03-.8.42-1.43 1.2-1.43.82 0 1.26.65 1.26 1.46 0 .03 0 .05 0 .08v8.26h5.02z"/>
    </symbol>
    <symbol id="category-health-and-beauty">
      <path d="M38.9 28.12c-2.02-1.6-5.1-.12-4.8 2.3.14 2.27 3.08 4 4.93 2.47 1.58-1.1 1.26-3.68-.13-4.78M24.15 22.7c-.63 0-1.14.5-1.14 1.14 0 .63.52 1.14 1.15 1.14.63 0 1.15-.5 1.15-1.14 0-.63-.52-1.15-1.15-1.15m3.3 16.03c.98 1.47 3.53 1.98 4.74.5 1.64-1.74.15-4.8-2.08-5.1-2.4-.5-4.13 2.46-2.68 4.6m11.74-4.28c-2.03 1.03-4.7.07-5.72-1.98-1.05-1.76-3.15-3.5-5.88-5.08 1.36 2.83 2.94 5.05 4.62 6.24 1.96 1.16 2.7 3.9 1.53 5.85-1.04 2-3.78 2.43-5.7 1.44-1.97-.84-3.27-3.3-2.4-5.26.94-2.06 1.56-1.53 1.96-2.3.38-.74-.98-2.66-3.07-5.35-2.98 2.77-11 9.78-10.48 9.3-.6.55-1.25.53-1.66.03.08.1-3.82-4.6-3.82-4.6l1-.85 3.2 3.1c.4-.3.78-.57 1.25-.9l-2.9-3.4 1-.86L15.38 33c.1-.1.17-.16.28-.25.2-.2.45-.4.67-.58l-3.1-3.6 1-.86L17.7 31c.3-.26.63-.54.94-.8l-3.23-3.77 1-.86 3.57 3.45c.3-.27.6-.54.92-.8l-3.37-3.93 1-.86 3.7 3.57c.3-.25 1.2-1 .9-.77-.4-.6-9.9-12.4-9.9-12.4-1.1-1.4-3.73-4.15-2.94-4.7 0 0 14.3 11.84 16.52 13.76.17-.16.46-.43.8-.75L24 17.95l1-.85L29 20.93c.32-.3.62-.57.88-.8l-3.72-4.32 1-.84 4.07 3.93c.96-.9.82-.88.82-.88l-3.75-4.34 1-.86 4.16 4c-.07.07.5-.47.83-.8l-3.85-4.48 1-.85 4.16 4.07c.78-.7.93-.9.93-.9l-3.96-4.46 1-.85s5.26 5.27 5 5.08c.24.2.28.55.15.83-.13.3-.42.5-.42.5l-9.86 9.4c2.54 2.3 4.36 3.82 5.14 3.5.8-.34.32-1 2.44-1.77 2.03-.74 4.37.74 5.07 2.8.83 1.97.18 4.66-1.9 5.55"/>
    </symbol>
    <symbol id="category-electronic-repair">
      <path d="M17.8 35.16h14.4v-20.3H17.8v20.3zm9.87-23.43c0-.32-.27-.5-.6-.5h-4.14c-.32 0-.58.2-.58.52 0 .33.26.47.58.47h4.15c.33 0 .6-.16.6-.48zm2.8 29.66H19.53c-1.68 0-3.04-1.38-3.04-3.06V11.66c0-1.68 1.35-3.05 3.03-3.05h10.94c1.68 0 3.04 1.34 3.04 3.03v26.7c0 1.7-1.35 3.06-3.03 3.06z" />
      <path d="M17.8 35.16h14.4v-20.3H17.8v20.3zm9.87-23.43c0-.32-.27-.5-.6-.5h-4.14c-.32 0-.58.2-.58.52 0 .33.26.47.58.47h4.15c.33 0 .6-.16.6-.48zm2.8 29.66H19.53c-1.68 0-3.04-1.38-3.04-3.06V11.66c0-1.68 1.35-3.05 3.03-3.05h10.94c1.68 0 3.04 1.34 3.04 3.03v26.7c0 1.7-1.35 3.06-3.03 3.06z" />
    </symbol>
    <symbol id="category-legal-advice">
      <path d="M34.48 17.5l-2.84 10.05h6.45L34.47 17.5zm-7.28-4.92c0-1.23-1-2.23-2.23-2.23s-2.23 1-2.23 2.23c0 1.24 1 2.23 2.23 2.23s2.23-.98 2.23-2.22zM11.96 27.55h6.45l-2.86-10.03-3.58 10.03zm23.12 4.87c-3.02 0-5.5-1.94-5.86-4.87h1.75l2.63-9.67h-7.78l.75 18.83h-3.2l.7-18.83h-7.64l2.6 9.68h1.75c-.35 2.93-2.84 4.87-5.87 4.87-3 0-5.5-1.94-5.85-4.87h2.18l3.85-10.95h8.5l.63-.8c-1.44-.35-2.56-1.66-2.56-3.22 0-1.83 1.5-3.32 3.33-3.32 1.84 0 3.33 1.5 3.33 3.32 0 1.56-1.08 2.87-2.53 3.22l.48.8h8.67l3.84 10.95h2.2c-.36 2.93-2.85 4.87-5.88 4.87z"/><path d="M20.26 38.36v-1.4c0-.55.44-.73 1-.73h7.35c.56 0 1 .18 1 .73v1.4h-9.34zM34.63 39.75c0 .55-.44 1-1 1H16.26c-.56 0-1-.45-1-1v-.56c0-.56.44-1.04 1-1.04h17.4c.54 0 .98.6.98 1.15v.45z"/>
    </symbol>
    <symbol id="category-teaching">
      <path d="M34.16 41.45H13.8c-.75 0-1.36-.6-1.36-1.36 0-.76.6-1.37 1.36-1.37h20.36c.75 0 1.35.6 1.35 1.36 0 .74-.6 1.35-1.34 1.35"/>
      <path d="M17.87 40.1c0-3.38 2.73-6.12 6.1-6.12 3.38 0 6.1 2.74 6.1 6.1h-12.2z"/>
      <path d="M23.98 12.27c-2.26 0-4.52.86-6.24 2.58-3.44 3.44-3.44 9.04 0 12.48 3.44 3.44 9.03 3.44 12.47 0 3.45-3.44 3.45-9.04 0-12.48-1.7-1.72-3.97-2.58-6.22-2.58m0 19.67c-2.8 0-5.57-1.06-7.68-3.17-4.24-4.24-4.24-11.13 0-15.36 4.23-4.22 11.12-4.22 15.35 0 4.24 4.24 4.24 11.13 0 15.37-2.1 2.1-4.9 3.17-7.67 3.17"/>
      <path d="M28.5 14.27c-.54 0-1.16.1-1.84.32-1.84.58-3.82 1.86-5.56 3.6-1.75 1.75-3.03 3.73-3.62 5.57-.5 1.6-.4 2.9.26 3.56.67.67 1.96.76 3.55.25 1.83-.58 3.8-1.87 5.55-3.6 1.75-1.76 3.03-3.73 3.62-5.58.5-1.6.4-2.88-.26-3.55-.37-.4-.96-.58-1.7-.58m-9.06 15.67c-1.3 0-2.36-.4-3.14-1.17-1.25-1.25-1.52-3.24-.76-5.62.68-2.14 2.14-4.4 4.12-6.38 1.97-1.97 4.24-3.44 6.38-4.12 2.38-.75 4.37-.48 5.6.76 1.26 1.25 1.53 3.25.77 5.62-.67 2.15-2.13 4.42-4.1 6.4-1.98 1.96-4.25 3.42-6.4 4.1-.88.28-1.7.42-2.46.42"/>
      <path d="M23.98 35.67c-3.42 0-6.84-1.2-9.58-3.57l-1.22 1.22c-.4.4-1.04.4-1.44 0-.4-.4-.4-1.04 0-1.43l1.92-1.93c.4-.4 1.04-.4 1.44 0 4.9 4.9 12.86 4.9 17.75 0 4.9-4.9 4.9-12.86 0-17.76-.4-.4-.4-1.03 0-1.43l1.92-1.92c.4-.4 1.04-.4 1.44 0 .4.4.4 1.04 0 1.44L35 11.5c4.97 5.74 4.74 14.46-.7 19.9-2.85 2.85-6.6 4.27-10.32 4.27"/>
      <path d="M30.2 28.77L16.3 14.85l1.44-1.44 13.9 13.93z"/>
      <path d="M17.74 28.77l-1.44-1.44L30.2 13.4l1.45 1.45z"/>
    </symbol>
    <symbol id="category-car">
      <path d="M37.28 28.93H32.8c-.2 0-.35-.27-.34-.47.38-4.36 7.24-2.68 7.24-2.68 0 2.76-2.42 3.15-2.42 3.15M14.16 20.4c.52-1.38 1.32-3.15 2.1-4.12.2-.24.46-.43.76-.52 1.33-.4 4.7-.64 7.96-.64h.04c3.27 0 6.63.24 7.96.64.3.1.56.28.76.52.78.97 1.6 2.76 2.1 4.14-3.37-.78-7.53-.86-10.84-.86-3.3 0-7.46.07-10.84.84m3.03 8.53H12.7s-2.42-.43-2.42-3.2c0 0 6.86-1.58 7.24 2.78 0 .2-.15.43-.35.43m23-6.66c.92-.5 1.9-1.2 1.9-1.87 0-.9-1.92-1.22-3-1.33-.45-.04-.9.14-1.18.5l-.23.28c-.55-1.52-1.6-4.1-2.8-5.3-1.48-1.47-9.9-1.38-9.9-1.38s-8.42-.07-9.9 1.4c-1.2 1.2-2.24 3.77-2.8 5.3l-.22-.3c-.3-.36-.73-.54-1.18-.5-1.1.1-3 .43-3 1.33 0 .66.96 1.35 1.87 1.86-1.15.9-1.85 2.1-1.85 3.68l.47 10.04c0 .43.37.85.8.85h4.3c.45 0 .97-.53.97-.97v-1h21.06v1c0 .44.52.97.96.97h4.3c.43 0 .8-.42.8-.85l.48-10c0-1.6-.7-2.8-1.88-3.7"/>
    </symbol>
  </defs>

<use xlink:href="#category-courier" x="0" y="0"  fill="#000000" />
<use xlink:href="#category-courier" x="50" y="0" fill="#ff0000" />
<use xlink:href="#category-courier" x="100" y="0" fill="#ffffff" />

<use xlink:href="#category-clerical" x="0" y="50"  fill="#000000" />
<use xlink:href="#category-clerical" x="50" y="50" fill="#ff0000" />
<use xlink:href="#category-clerical" x="100" y="50" fill="#ffffff" />

<use xlink:href="#category-trucking" x="0" y="100"  fill="#000000" />
<use xlink:href="#category-trucking" x="50" y="100" fill="#ff0000" />
<use xlink:href="#category-trucking" x="100" y="100" fill="#ffffff" />

<use xlink:href="#category-house" x="0" y="150"  fill="#000000" />
<use xlink:href="#category-house" x="50" y="150" fill="#ff0000" />
<use xlink:href="#category-house" x="100" y="150" fill="#ffffff" />

<use xlink:href="#category-virtual-assistant" x="0" y="200"  fill="#000000" />
<use xlink:href="#category-virtual-assistant" x="50" y="200" fill="#ff0000" />
<use xlink:href="#category-virtual-assistant" x="100" y="200" fill="#ffffff" />

<use xlink:href="#category-computer-help" x="0" y="250"  fill="#000000" />
<use xlink:href="#category-computer-help" x="50" y="250" fill="#ff0000" />
<use xlink:href="#category-computer-help" x="100" y="250" fill="#ffffff" />

<use xlink:href="#category-promo" x="0" y="300"  fill="#000000" />
<use xlink:href="#category-promo" x="50" y="300" fill="#ff0000" />
<use xlink:href="#category-promo" x="100" y="300" fill="#ffffff" />

<use xlink:href="#category-design" x="0" y="350"  fill="#000000" />
<use xlink:href="#category-design" x="50" y="350" fill="#ff0000" />
<use xlink:href="#category-design" x="100" y="350" fill="#ffffff" />

<use xlink:href="#category-web-development" x="0" y="400"  fill="#000000" />
<use xlink:href="#category-web-development" x="50" y="400" fill="#ff0000" />
<use xlink:href="#category-web-development" x="100" y="400" fill="#ffffff" />

<use xlink:href="#category-photo-shop" x="0" y="450"  fill="#000000" />
<use xlink:href="#category-photo-shop" x="50" y="450" fill="#ff0000" />
<use xlink:href="#category-photo-shop" x="100" y="450" fill="#ffffff" />

<use xlink:href="#category-tech-repair" x="0" y="500"  fill="#000000" />
<use xlink:href="#category-tech-repair" x="50" y="500" fill="#ff0000" />
<use xlink:href="#category-tech-repair" x="100" y="500" fill="#ffffff" />

<use xlink:href="#category-health-and-beauty" x="0" y="550"  fill="#000000" />
<use xlink:href="#category-health-and-beauty" x="50" y="550" fill="#ff0000" />
<use xlink:href="#category-health-and-beauty" x="100" y="550" fill="#ffffff" />

<use xlink:href="#category-electronic-repair" x="0" y="600"  fill="#000000" />
<use xlink:href="#category-electronic-repair" x="50" y="600" fill="#ff0000" />
<use xlink:href="#category-electronic-repair" x="100" y="600" fill="#ffffff" />

<use xlink:href="#category-legal-advice" x="0" y="650"  fill="#000000" />
<use xlink:href="#category-legal-advice" x="50" y="650" fill="#ff0000" />
<use xlink:href="#category-legal-advice" x="100" y="650" fill="#ffffff" />

<use xlink:href="#category-teaching" x="0" y="700"  fill="#000000" />
<use xlink:href="#category-teaching" x="50" y="700" fill="#ff0000" />
<use xlink:href="#category-teaching" x="100" y="700" fill="#ffffff" />

<use xlink:href="#category-car" x="0" y="750"  fill="#000000" />
<use xlink:href="#category-car" x="50" y="750" fill="#ff0000" />
<use xlink:href="#category-car" x="100" y="750" fill="#ffffff" />
</svg>